<svg width="27" height="30" viewBox="0 0 27 30" fill="none" xmlns="http://www.w3.org/2000/svg">
<path fill-rule="evenodd" clip-rule="evenodd" d="M7.35899 2.26758C4.87199 2.26758 2.80949 4.28058 2.75099 6.76308V23.0096C2.70749 25.4801 4.66799 27.5081 7.12049 27.5501L7.34099 27.5486H19.359C21.822 27.5216 23.8305 25.4861 23.8275 23.0111V9.51258L16.8765 2.26758H7.37699H7.35899ZM7.09949 29.8001C3.38999 29.7356 0.43799 26.6801 0.50099 22.9901V6.73608C0.58649 3.01458 3.65999 0.0175781 7.35449 0.0175781H7.38149H17.355C17.661 0.0175781 17.9535 0.142078 18.1665 0.362578L25.7655 8.28108C25.965 8.48958 26.0775 8.77008 26.0775 9.05958V23.0096C26.0835 26.7131 23.0745 29.7596 19.371 29.7986L7.09949 29.8001Z" fill="#429F97"/>
<path fill-rule="evenodd" clip-rule="evenodd" d="M24.9454 10.4766H20.8144C18.0679 10.4691 15.8359 8.23111 15.8359 5.48911V1.12561C15.8359 0.50461 16.3399 0.000610352 16.9609 0.000610352C17.5819 0.000610352 18.0859 0.50461 18.0859 1.12561V5.48911C18.0859 6.99511 19.3114 8.22211 20.8174 8.22661H24.9454C25.5664 8.22661 26.0704 8.73061 26.0704 9.35161C26.0704 9.97261 25.5664 10.4766 24.9454 10.4766Z" fill="#429F97"/>
<path fill-rule="evenodd" clip-rule="evenodd" d="M16.6903 17.4962H9.3418C8.7208 17.4962 8.2168 16.9922 8.2168 16.3712C8.2168 15.7502 8.7208 15.2462 9.3418 15.2462H16.6903C17.3113 15.2462 17.8153 15.7502 17.8153 16.3712C17.8153 16.9922 17.3113 17.4962 16.6903 17.4962Z" fill="#429F97"/>
<path fill-rule="evenodd" clip-rule="evenodd" d="M13.0156 21.1715C12.3946 21.1715 11.8906 20.6675 11.8906 20.0465V12.6965C11.8906 12.0755 12.3946 11.5715 13.0156 11.5715C13.6366 11.5715 14.1406 12.0755 14.1406 12.6965V20.0465C14.1406 20.6675 13.6366 21.1715 13.0156 21.1715Z" fill="#429F97"/>
</svg>
