<svg width="29" height="30" viewBox="0 0 29 30" fill="none" xmlns="http://www.w3.org/2000/svg">
<path fill-rule="evenodd" clip-rule="evenodd" d="M14.37 30C12.3375 30 10.356 29.9775 8.39552 29.937C5.88752 29.8875 4.15202 28.2615 3.86852 25.6935C3.39602 21.4335 2.58752 11.3925 2.58002 11.292C2.52902 10.6725 2.99102 10.1295 3.61052 10.08C4.22102 10.0635 4.77302 10.4925 4.82252 11.1105C4.83002 11.2125 5.63702 21.219 6.10502 25.446C6.26552 26.9055 7.05302 27.6585 8.44202 27.687C12.192 27.7665 16.0185 27.771 20.1435 27.696C21.6195 27.6675 22.4175 26.9295 22.5825 25.4355C23.0475 21.2445 23.8575 11.2125 23.8665 11.1105C23.916 10.4925 24.4635 10.0605 25.077 10.08C25.6965 10.131 26.1585 10.6725 26.109 11.292C26.1 11.394 25.287 21.4605 24.819 25.683C24.528 28.3035 22.797 29.898 20.184 29.946C18.1845 29.9805 16.2555 30 14.37 30Z" fill="white"/>
<path fill-rule="evenodd" clip-rule="evenodd" d="M27.062 7.48395H1.625C1.004 7.48395 0.5 6.97995 0.5 6.35895C0.5 5.73795 1.004 5.23395 1.625 5.23395H27.062C27.683 5.23395 28.187 5.73795 28.187 6.35895C28.187 6.97995 27.683 7.48395 27.062 7.48395Z" fill="white"/>
<path fill-rule="evenodd" clip-rule="evenodd" d="M22.1599 7.48396C20.4529 7.48396 18.9709 6.26746 18.6349 4.59346L18.2704 2.76946C18.1939 2.49196 17.8774 2.25046 17.5174 2.25046H11.1679C10.8079 2.25046 10.4914 2.49196 10.3999 2.83846L10.0504 4.59346C9.71589 6.26746 8.23239 7.48396 6.52539 7.48396C5.90439 7.48396 5.40039 6.97996 5.40039 6.35896C5.40039 5.73796 5.90439 5.23396 6.52539 5.23396C7.16439 5.23396 7.71939 4.77796 7.84539 4.15096L8.20989 2.32696C8.58039 0.928958 9.79089 0.000457764 11.1679 0.000457764H17.5174C18.8944 0.000457764 20.1049 0.928958 20.4604 2.25946L20.8414 4.15096C20.9659 4.77796 21.5209 5.23396 22.1599 5.23396C22.7809 5.23396 23.2849 5.73796 23.2849 6.35896C23.2849 6.97996 22.7809 7.48396 22.1599 7.48396Z" fill="white"/>
</svg>
