<svg width="27" height="30" viewBox="0 0 27 30" fill="none" xmlns="http://www.w3.org/2000/svg">
<path fill-rule="evenodd" clip-rule="evenodd" d="M7.35749 2.26755C4.87199 2.26755 2.80949 4.28055 2.75099 6.76305V23.0095C2.70749 25.48 4.66799 27.508 7.11899 27.55L7.34099 27.5485H19.359C21.822 27.5215 23.8305 25.486 23.8275 23.011V9.51255L16.875 2.26755H7.37699H7.35749ZM7.09799 29.8C3.38849 29.7355 0.43799 26.68 0.50099 22.99V6.73605C0.58649 3.01455 3.65849 0.0175476 7.35299 0.0175476H7.38149H17.3535C17.6595 0.0175476 17.952 0.142048 18.165 0.362548L25.764 8.28105C25.965 8.48955 26.0775 8.77005 26.0775 9.05955V23.0096C26.0835 26.7131 23.0745 29.7596 19.371 29.7985L7.09799 29.8Z" fill="#429F97"/>
<path fill-rule="evenodd" clip-rule="evenodd" d="M24.9454 10.4766H20.8144C18.0679 10.4691 15.8359 8.23111 15.8359 5.48911V1.12561C15.8359 0.50461 16.3399 0.000610352 16.9609 0.000610352C17.5819 0.000610352 18.0859 0.50461 18.0859 1.12561V5.48911C18.0859 6.99511 19.3114 8.22211 20.8174 8.22661H24.9454C25.5664 8.22661 26.0704 8.73061 26.0704 9.35161C26.0704 9.97261 25.5664 10.4766 24.9454 10.4766Z" fill="#429F97"/>
<path fill-rule="evenodd" clip-rule="evenodd" d="M16.6883 18.7457H9.33984C8.71884 18.7457 8.21484 18.2417 8.21484 17.6207C8.21484 16.9997 8.71884 16.4957 9.33984 16.4957H16.6883C17.3093 16.4957 17.8133 16.9997 17.8133 17.6207C17.8133 18.2417 17.3093 18.7457 16.6883 18.7457Z" fill="#429F97"/>
</svg>
