<svg width="31" height="31" viewBox="0 0 31 31" fill="none" xmlns="http://www.w3.org/2000/svg">
<path fill-rule="evenodd" clip-rule="evenodd" d="M21.8655 30.5531H8.6295C3.468 30.5531 0 26.9306 0 21.5396V9.06855C0 3.67755 3.468 0.0550537 8.6295 0.0550537H14.238C14.859 0.0550537 15.363 0.559054 15.363 1.18005C15.363 1.80105 14.859 2.30505 14.238 2.30505H8.6295C4.7535 2.30505 2.25 4.96005 2.25 9.06855V21.5396C2.25 25.6481 4.7535 28.3031 8.6295 28.3031H21.8655C25.7415 28.3031 28.2465 25.6481 28.2465 21.5396V15.4976C28.2465 14.8766 28.7505 14.3726 29.3715 14.3726C29.9925 14.3726 30.4965 14.8766 30.4965 15.4976V21.5396C30.4965 26.9306 27.027 30.5531 21.8655 30.5531Z" fill="white"/>
<path fill-rule="evenodd" clip-rule="evenodd" d="M10.3013 20.1424H14.7668C15.3368 20.1424 15.8708 19.9219 16.2743 19.5184L27.5378 8.25493C27.9998 7.79293 28.2548 7.17793 28.2548 6.52393C28.2548 5.86843 27.9998 5.25193 27.5378 4.78993L25.7123 2.96443C24.7568 2.01193 23.2028 2.01193 22.2458 2.96443L11.0363 14.1739C10.6478 14.5624 10.4273 15.0784 10.4138 15.6259L10.3013 20.1424ZM14.7668 22.3924H9.1478C8.8448 22.3924 8.5538 22.2694 8.3423 22.0519C8.1308 21.8359 8.0153 21.5434 8.0228 21.2389L8.1638 15.5704C8.1923 14.4424 8.6468 13.3819 9.4448 12.5824H9.4463L20.6558 1.37293C22.4888 -0.457073 25.4693 -0.457073 27.3023 1.37293L29.1278 3.19843C30.0173 4.08643 30.5063 5.26693 30.5048 6.52393C30.5048 7.78093 30.0158 8.95993 29.1278 9.84643L17.8643 21.1099C17.0378 21.9364 15.9368 22.3924 14.7668 22.3924Z" fill="white"/>
<path fill-rule="evenodd" clip-rule="evenodd" d="M26.5967 11.8749C26.3087 11.8749 26.0207 11.7654 25.8017 11.5449L18.9527 4.69591C18.5132 4.25641 18.5132 3.54391 18.9527 3.10441C19.3922 2.66491 20.1032 2.66491 20.5427 3.10441L27.3917 9.95491C27.8312 10.3944 27.8312 11.1054 27.3917 11.5449C27.1727 11.7654 26.8847 11.8749 26.5967 11.8749Z" fill="white"/>
</svg>
