<svg width="21" height="21" viewBox="0 0 21 21" fill="none" xmlns="http://www.w3.org/2000/svg">
<path fill-rule="evenodd" clip-rule="evenodd" d="M14.577 20.3687H5.753C2.312 20.3687 0 17.9537 0 14.3597V6.04568C0 2.45168 2.312 0.0366821 5.753 0.0366821H9.492C9.906 0.0366821 10.242 0.372682 10.242 0.786682C10.242 1.20068 9.906 1.53668 9.492 1.53668H5.753C3.169 1.53668 1.5 3.30668 1.5 6.04568V14.3597C1.5 17.0987 3.169 18.8687 5.753 18.8687H14.577C17.161 18.8687 18.831 17.0987 18.831 14.3597V10.3317C18.831 9.91768 19.167 9.58168 19.581 9.58168C19.995 9.58168 20.331 9.91768 20.331 10.3317V14.3597C20.331 17.9537 18.018 20.3687 14.577 20.3687Z" fill="#429F97"/>
<path fill-rule="evenodd" clip-rule="evenodd" d="M6.86689 13.4283H9.84389C10.2239 13.4283 10.5799 13.2813 10.8489 13.0123L18.3579 5.50331C18.6659 5.19531 18.8359 4.78531 18.8359 4.34931C18.8359 3.91231 18.6659 3.50131 18.3579 3.19331L17.1409 1.97631C16.5039 1.34131 15.4679 1.34131 14.8299 1.97631L7.35689 9.44931C7.09789 9.70831 6.95089 10.0523 6.94189 10.4173L6.86689 13.4283ZM9.84389 14.9283H6.09789C5.89589 14.9283 5.70189 14.8463 5.56089 14.7013C5.41989 14.5573 5.34289 14.3623 5.34789 14.1593L5.44189 10.3803C5.46089 9.62831 5.76389 8.9213 6.29589 8.3883H6.29689L13.7699 0.915305C14.9919 -0.304695 16.9789 -0.304695 18.2009 0.915305L19.4179 2.13231C20.0109 2.72431 20.3369 3.51131 20.3359 4.34931C20.3359 5.1873 20.0099 5.97331 19.4179 6.56431L11.9089 14.0733C11.3579 14.6243 10.6239 14.9283 9.84389 14.9283Z" fill="#429F97"/>
<path fill-rule="evenodd" clip-rule="evenodd" d="M17.7318 7.9166C17.5398 7.9166 17.3478 7.8436 17.2018 7.6966L12.6358 3.1306C12.3428 2.8376 12.3428 2.3626 12.6358 2.0696C12.9288 1.7766 13.4028 1.7766 13.6958 2.0696L18.2618 6.6366C18.5548 6.9296 18.5548 7.4036 18.2618 7.6966C18.1158 7.8436 17.9238 7.9166 17.7318 7.9166Z" fill="#429F97"/>
</svg>
