<svg width="677" height="450" viewBox="0 0 677 450" fill="none" xmlns="http://www.w3.org/2000/svg">
<path d="M263.692 39.8644C263.692 39.8644 417.246 22.5297 437.614 106.413C448.369 150.796 527.588 118.736 572.798 134.133C604.968 145.112 588.344 182.262 607.696 191.949C702.969 239.691 678.191 448.559 659.695 448.507L24.3518 447.655C24.3518 447.655 -27.0442 385.033 19.4977 348.478C66.0079 311.923 34.0599 295.208 28.4127 281.051C21.9089 264.827 -1.31448 218.507 64.8975 198.227C98.876 187.842 109.441 159.011 112.011 139.765C116.42 106.878 139.009 77.6337 173.273 61.6425C194.974 51.5413 224.257 43.2486 263.692 39.8644Z" fill="#378780"/>
<path d="M189.987 0.66922H40.8633V205.432H189.987V0.66922Z" fill="#4C968F"/>
<path d="M181.236 9.49179H49.5664V196.418H181.236V9.49179Z" fill="#0D312E"/>
<g clip-path="url(#clip0)">
<path opacity="0.2" d="M144.067 55.2017C153.152 55.2017 160.517 47.817 160.517 38.7075C160.517 29.598 153.152 22.2133 144.067 22.2133C134.982 22.2133 127.617 29.598 127.617 38.7075C127.617 47.817 134.982 55.2017 144.067 55.2017Z" fill="#F4F8F7"/>
<path opacity="0.2" d="M153.153 24.9463C154.874 27.5595 155.903 30.7001 155.903 34.0565C155.903 43.1666 148.538 50.5507 139.453 50.5507C136.082 50.5507 132.973 49.5437 130.367 47.7936C133.308 52.2528 138.353 55.1777 144.091 55.1777C153.177 55.1777 160.541 47.7936 160.541 38.6835C160.517 32.9536 157.576 27.8951 153.153 24.9463Z" fill="#F4F8F7"/>
<path d="M67.748 165.051C69.852 165.051 69.852 161.767 67.748 161.767C65.6439 161.767 65.6439 165.051 67.748 165.051Z" fill="white"/>
<path d="M103.709 130.001C105.813 130.001 105.813 126.717 103.709 126.717C101.605 126.717 101.605 130.001 103.709 130.001Z" fill="white"/>
<path d="M159.848 108.089C161.952 108.089 161.952 104.804 159.848 104.804C157.744 104.804 157.744 108.089 159.848 108.089Z" fill="white"/>
<path d="M69.7558 35.2791C71.8598 35.2791 71.8598 31.9946 69.7558 31.9946C67.6517 31.9946 67.6517 35.2791 69.7558 35.2791Z" fill="white"/>
<path d="M105.071 63.257C107.175 63.257 107.175 59.9726 105.071 59.9726C102.943 59.9726 102.943 63.257 105.071 63.257Z" fill="white"/>
<path d="M147.08 171.117C149.184 171.117 149.184 167.832 147.08 167.832C144.976 167.832 144.976 171.117 147.08 171.117Z" fill="white"/>
<path d="M64.0429 110.103C66.1469 110.103 66.1469 106.818 64.0429 106.818C61.9388 106.818 61.9388 110.103 64.0429 110.103Z" fill="white"/>
<path d="M80.1805 129.785C81.1608 129.785 81.1608 128.275 80.1805 128.275C79.2002 128.275 79.2002 129.785 80.1805 129.785Z" fill="white"/>
<path d="M107.079 108.209C108.059 108.209 108.059 106.698 107.079 106.698C106.099 106.698 106.099 108.209 107.079 108.209Z" fill="white"/>
<path d="M138.329 133.837C139.309 133.837 139.309 132.326 138.329 132.326C137.372 132.326 137.372 133.837 138.329 133.837Z" fill="white"/>
<path d="M111.454 178.668C112.434 178.668 112.434 177.158 111.454 177.158C110.474 177.158 110.474 178.668 111.454 178.668Z" fill="white"/>
<path d="M69.7575 184.063C70.7378 184.063 70.7378 182.552 69.7575 182.552C68.8011 182.552 68.7772 184.063 69.7575 184.063Z" fill="white"/>
<path d="M79.1766 62.7056C80.1569 62.7056 80.1569 61.1952 79.1766 61.1952C78.1963 61.1952 78.1963 62.7056 79.1766 62.7056Z" fill="white"/>
<path d="M107.415 23.2682C108.395 23.2682 108.395 21.7578 107.415 21.7578C106.435 21.7578 106.435 23.2682 107.415 23.2682Z" fill="white"/>
<path d="M167.929 64.4078C168.909 64.4078 168.909 62.8975 167.929 62.8975C166.948 62.8735 166.948 64.4078 167.929 64.4078Z" fill="white"/>
<path d="M130.272 67.7641C131.253 67.7641 131.253 66.2537 130.272 66.2537C129.292 66.2537 129.292 67.7641 130.272 67.7641Z" fill="white"/>
<path d="M137.325 115.305C138.305 115.305 138.305 113.794 137.325 113.794C136.368 113.77 136.368 115.305 137.325 115.305Z" fill="white"/>
<path d="M113.462 154.646C114.754 154.646 114.754 152.633 113.462 152.633C112.171 152.633 112.171 154.646 113.462 154.646Z" fill="white"/>
<path d="M158.174 148.533C158.987 148.533 158.987 147.262 158.174 147.262C157.361 147.286 157.361 148.533 158.174 148.533Z" fill="white"/>
</g>
<path d="M51.9574 9.49179H49.5664V196.418H51.9574V9.49179Z" fill="#0D312E"/>
<path d="M211.707 254.868H205.584V447.264H211.707V254.868Z" fill="#0D312E"/>
<path d="M88.0211 447.08H189.988L189.988 291.649H88.0211L88.0211 447.08Z" fill="#5E9F9A"/>
<path d="M88.0211 337.144H189.988V333.868H88.0211V337.144Z" fill="#0D312E"/>
<path d="M88.0211 393.752H189.988V390.475H88.0211V393.752Z" fill="#0D312E"/>
<path d="M52.2463 447.08H88.0332L88.0332 291.649H52.2463L52.2463 447.08Z" fill="#0D312E"/>
<path d="M54.1884 293.296H190.071C192.926 293.296 195.21 290.974 195.21 288.142V287.57C195.21 284.707 192.894 282.416 190.071 282.416H54.1884C51.3331 282.416 49.0488 284.739 49.0488 287.57V288.142C49.0488 290.974 51.3648 293.296 54.1884 293.296Z" fill="#1D2F49"/>
<path d="M606.029 414.88H607.203C607.584 410.872 608.345 406.482 609.71 401.869C614.881 384.404 612.597 382.146 621.321 371.234C630.014 360.323 630.68 337.673 630.68 337.673C630.68 337.673 634.868 311.969 630.68 300.644C626.493 289.319 626.175 277.995 615.991 266.033C615.991 266.033 614.056 282.035 611.645 289.319C609.234 296.604 606.918 303.539 608.726 321.004C610.534 338.468 611.645 339.932 612.057 344.449C612.47 348.966 611.835 368.053 612.787 371.203C613.739 374.352 607.14 396.175 606.664 405.559C606.505 408.39 606.251 411.603 606.029 414.88Z" fill="#5E9F9A"/>
<path d="M609.71 414.88C611.391 410.999 614.342 407.118 619.513 404.827C633.06 398.751 642.197 398.91 648.479 384.341C654.761 369.803 654.761 349.889 656.95 345.785C656.95 345.785 651.144 344.831 645.338 355.233C639.532 365.667 635.598 373.429 632.235 379.474C628.872 385.55 624.05 383.832 619.926 388.444C616.467 392.294 613.295 401.296 612.089 405.845C611.709 407.341 611.138 408.74 610.376 410.076C609.678 411.285 608.885 412.78 608.409 413.83C608.314 414.053 608.187 414.435 608.092 414.88H609.71Z" fill="#4C968F"/>
<path d="M571.512 345.912C570.56 358.351 578.46 357.396 578.777 365.317C579.094 373.238 589.405 386.663 594.196 396.206C596.671 401.169 597.591 408.74 597.908 414.88H601.747C600.256 399.356 593.974 388.54 590.23 379.855C585.408 368.689 584.678 363.6 588.771 354.883C592.895 346.167 586.835 323.58 592.705 313.528C598.574 303.476 595.56 287.697 594.228 281.621C592.895 275.545 594.354 271.441 595.56 265.047C596.766 258.653 594.228 249.364 594.228 249.364C594.006 257.285 588.009 268.133 583.631 275.068C579.285 282.035 571.068 300.931 572.019 309.52C572.971 318.077 572.495 318.745 572.495 318.745C569.418 330.229 572.464 333.474 571.512 345.912Z" fill="#5E9F9A"/>
<path d="M594.545 404.764C595.053 406.259 596.607 410.044 598.067 414.88H600.414C599.336 408.74 597.496 401.583 594.355 397.479C588.073 389.24 575.478 385.677 574.05 379.696C572.591 373.716 574.209 355.774 565.008 345.753C565.008 345.753 566.309 356.919 565.008 359.909C563.707 362.9 552.762 376.801 559.202 388.444C565.643 400.087 580.173 398.624 584.678 401.233C589.215 403.809 593.752 402.346 594.545 404.764Z" fill="#4C968F"/>
<path d="M588.739 351.098C588.58 363.059 597.94 367.576 597.781 374.225C597.622 380.841 599.716 387.967 601.493 393.312C602.603 396.684 602.001 406.1 601.81 414.912H604.412C605.078 408.422 605.776 399.07 605.554 394.934C605.237 389.272 607.806 384.754 608.124 374.893C608.441 365.031 610.535 356.124 606.188 343.685C601.842 331.247 602.635 316.359 584.424 302.617C584.424 302.617 581.188 317.155 583.631 325.108C586.011 332.965 588.898 339.136 588.739 351.098Z" fill="#4C968F"/>
<path d="M607.204 404.7H605.459H582.236C580.523 404.7 579.254 406.291 579.666 407.977L588.772 446.469C589.057 447.678 590.104 448.505 591.341 448.505H605.459H607.204H621.322C622.56 448.505 623.607 447.646 623.892 446.469L632.998 407.977C633.378 406.323 632.141 404.7 630.428 404.7H607.204Z" fill="#0D312E"/>
<path d="M431.567 254.581H201.649C198.953 254.581 196.764 252.195 196.764 249.269C196.764 246.342 198.953 243.956 201.649 243.956H431.536C434.232 243.956 436.421 246.342 436.421 249.269C436.421 252.195 434.264 254.581 431.567 254.581Z" fill="#0D312E"/>
<path d="M512.182 163.345C513.768 148.33 505.234 134.461 491.179 130.357C490.418 121.99 486.199 113.91 479.822 108.789C467.195 98.6407 445.272 94.6324 438.292 109.902C427.759 117.219 420.367 131.534 424.904 143.431C415.196 155.52 421.319 174.989 438.039 182.782C439.022 195.157 446.922 206.737 458.407 210.872C461.167 211.858 465.481 213.226 466.053 213.703C465.291 213.131 476.554 236.353 502.855 222.547C529.663 208.454 531.916 176.197 512.182 163.345Z" fill="#0D312E"/>
<path d="M473.413 433.14H462.944C459.866 433.14 457.328 435.653 457.328 438.771C457.328 441.856 459.834 444.401 462.944 444.401H473.413C476.522 444.401 479.029 441.888 479.029 438.771C479.029 435.653 476.522 433.14 473.413 433.14Z" fill="#0D312E"/>
<path d="M472.367 440.87L462.5 440.838C463.801 397.638 464.943 332.043 462.786 328.352C462.786 328.352 462.944 328.575 463.452 328.861L471.478 326.762C472.779 327.43 473.541 327.812 473.826 346.167C473.953 355.615 473.921 368.689 473.667 384.977C473.192 412.717 472.367 440.584 472.367 440.87Z" fill="#0D312E"/>
<path d="M507.837 438.771H428.554C424.906 438.771 421.955 441.952 421.955 445.896C421.955 446.596 422.463 447.137 423.097 447.137H513.262C513.897 447.137 514.404 446.565 514.404 445.896C514.436 441.952 511.485 438.771 507.837 438.771Z" fill="#0D312E"/>
<path d="M367.354 232.599L419.734 217.966C419.734 217.966 430.774 203.11 444.956 183.164C449.588 187.777 452.189 194.839 456.853 199.42L422.208 237.848C420.971 239.248 419.194 240.043 417.323 240.043L369.194 240.202L352.729 241.507V230.945L367.354 232.599Z" fill="#F48C7F"/>
<path d="M442.767 221.434C442.767 221.434 460.755 202.951 465.356 194.935C469.988 186.918 462.215 192.135 454.251 190.004C451.237 189.208 451.999 171.521 446.32 177.279C436.993 186.695 425.254 203.174 425.254 203.174L442.767 221.434Z" fill="#81BFBA"/>
<path d="M468.338 169.167C468.338 169.167 484.487 165.986 491.847 172.125C499.208 178.297 490.261 233.14 490.293 242.238C490.293 251.336 495.337 277.008 495.337 277.008C495.337 277.008 446.447 285.597 438.675 271.95C438.675 271.95 436.454 219.97 436.803 213.417C437.12 206.864 444.385 180.142 446.384 177.279C448.351 174.416 468.338 169.167 468.338 169.167Z" fill="#63A59F"/>
<path d="M468.433 144.163C468.433 144.163 468.528 144.64 468.655 145.467C469.384 149.412 472.208 162.518 474.112 166.113C476.428 170.471 466.244 184.341 456.44 182.655C453.522 182.146 458.915 169.899 458.661 168.595C458.154 166.113 457.487 162.709 456.821 159.242C456.44 157.27 456.028 155.297 455.679 153.42C454.632 148.108 453.775 143.781 453.775 143.781L468.433 144.163Z" fill="#F7A491"/>
<path d="M468.655 145.467C468.497 144.64 468.433 144.163 468.433 144.163L453.744 143.781C453.744 143.781 454.601 148.108 455.648 153.42C456.028 155.265 456.409 157.238 456.79 159.21C459.042 158.892 461.422 157.779 463.801 155.679C466.403 153.42 468.084 150.685 469.1 147.79C468.941 146.867 468.782 146.072 468.655 145.467Z" fill="#F47458"/>
<path d="M409.676 402.155C409.676 402.155 424.524 420.002 424.619 421.56C424.714 423.119 424.016 440.075 422.271 441.602C420.494 443.161 417.385 444.528 419.067 446.278C420.336 447.582 427.95 447.042 434.39 446.66C436.262 446.564 438.61 431.549 439.371 429.354C440.45 426.141 443.083 418.952 442.1 416.693C441.624 415.612 439.34 413.385 436.104 411.285C432.709 409.09 419.765 391.021 419.765 391.021L409.676 402.155Z" fill="#F48C7F"/>
<path d="M435.882 411.222C435.882 411.222 425.92 439.375 422.017 440.711C420.971 441.061 420.368 441.983 419.416 444.178C419.13 444.846 419.416 447.073 419.416 447.073H435.85C435.85 447.073 438.483 434.667 439.53 429.227C439.53 429.227 445.019 415.93 444.416 414.721C443.782 413.512 435.882 411.222 435.882 411.222Z" fill="#429F97"/>
<path d="M320.781 410.744C320.781 410.744 308.662 427.859 309.741 433.267C310.312 436.162 312.85 439.947 311.39 442.683C309.931 445.419 308.249 446.087 308.249 446.087L270.432 446.692C268.37 446.723 269.734 445.387 271.384 444.178C274.112 442.174 276.301 440.87 284.994 436.639C285.565 436.353 287.628 435.048 288.357 434.603C290.229 433.458 292.133 431.645 293.751 429.831C296.479 426.809 308.408 402.155 308.408 402.155L320.781 410.744Z" fill="#F7A491"/>
<path d="M288.388 434.603C298.382 437.18 305.774 435.43 309.93 433.744C311.009 436.767 312.405 440.552 311.675 442.747C310.755 445.419 309.454 446.024 308.28 446.056C299.143 446.31 274.809 446.628 267.861 446.724C266.878 446.724 266.339 445.61 266.973 444.847C268.686 442.811 287.627 435.08 288.388 434.603Z" fill="#429F97"/>
<path d="M364.626 305.162C364.626 305.162 379.632 322.34 383.471 325.076C387.31 327.812 424.048 395.634 424.048 395.634L410.946 405.209C410.946 405.209 378.109 364.172 362.691 342.191C349.651 323.613 354.442 324.79 346.796 313.496C342.576 307.261 343.528 298.863 349.112 293.805C349.81 293.169 350.571 292.533 351.364 291.833C362.722 282.353 440.514 271.664 440.514 271.664L490.261 276.563C490.261 276.563 449.62 305.162 448.097 305.925C446.574 306.689 391.942 314.673 390.831 314.673C389.721 314.673 364.626 305.162 364.626 305.162Z" fill="#19615A"/>
<path d="M495.305 277.04C495.305 277.04 503.84 302.712 491.022 314.705C478.205 326.698 402.158 325.362 377.126 325.362C377.126 325.362 366.879 353.515 365.737 358.065C364.595 362.614 314.912 421.592 314.912 421.592L301.27 412.844C301.27 412.844 354.76 308.629 358.916 304.048C363.103 299.499 422.653 281.239 437.437 277.04C452.253 272.841 495.305 277.04 495.305 277.04Z" fill="#226963"/>
<path d="M396.351 230.85L441.782 220.765C441.782 220.765 458.216 199.611 473.984 181.383C478.616 185.995 481.218 193.058 485.881 197.638L451.205 236.099C449.968 237.498 447.049 240.012 445.177 240.012H398.001L381.693 239.757V229.196L396.351 230.85Z" fill="#F7A491"/>
<path d="M471.765 219.684C471.765 219.684 489.753 201.201 494.354 193.185C498.986 185.168 495.559 171.712 487.596 169.58C479.664 167.481 454.252 201.456 454.252 201.456L471.765 219.684Z" fill="#81BFBA"/>
<path d="M422.621 327.971L427.19 308.852C430.394 295.459 442.196 285.725 455.933 285.184L513.992 282.83L515.769 276.913L455.68 279.363C439.373 280.031 425.318 291.61 421.511 307.516L416.625 327.844C418.338 327.875 420.337 327.907 422.621 327.971Z" fill="#0D312E"/>
<path d="M500.508 317.759C500.508 317.759 420.749 319.127 412.437 317.759C404.125 316.391 400.508 326.857 403.015 332.329C405.489 337.8 412.31 339.932 422.367 340.409C432.425 340.918 516.054 343.272 518.434 341.045C520.369 339.2 545.718 252.291 554.95 220.511C556.79 214.149 553.142 207.532 546.828 205.655C540.515 203.81 533.916 207.373 532.012 213.703L500.508 317.759Z" fill="#4C968F"/>
<path d="M455.394 112.892C455.394 112.892 462.564 112.065 467.069 117.919C471.574 123.772 476.428 141.841 465.229 151.702C454.061 161.532 443.02 150.398 441.371 138.596C439.753 126.762 439.118 112.447 455.394 112.892Z" fill="#F7A491"/>
<path d="M454.6 110.952C454.6 110.952 464.181 128.162 471.065 128.957C477.918 129.752 478.838 138.882 478.838 138.882C478.838 138.882 476.395 117.823 469.606 113.751C462.785 109.679 454.6 110.952 454.6 110.952Z" fill="#0D312E"/>
<path d="M469.257 133.252C468.686 136.306 469.828 139.105 471.763 139.519C473.698 139.932 475.729 137.769 476.3 134.715C476.871 131.661 475.729 128.862 473.794 128.448C471.827 128.066 469.796 130.198 469.257 133.252Z" fill="#F7A491"/>
<path d="M287.818 181.923H361.01C362.945 181.923 364.69 183.1 365.42 184.882L387.945 239.98H428.3C429.443 239.98 430.331 240.902 430.331 242.015C430.331 243.161 429.411 244.051 428.3 244.051H313.484C310.312 244.051 307.456 242.206 306.155 239.311L283.471 188.636C282.044 185.518 284.36 181.923 287.818 181.923Z" fill="#828282"/>
<path d="M327.221 214.021C327.729 216.503 329.855 218.157 332.044 217.711C334.201 217.266 335.565 214.912 335.058 212.431C334.55 209.949 332.424 208.295 330.235 208.741C328.078 209.186 326.745 211.54 327.221 214.021Z" fill="white"/>
<path d="M208.659 330.035H421.699V323.514H208.659V330.035Z" fill="#0D312E"/>
<path d="M424.619 254.868H418.496V447.264H424.619V254.868Z" fill="#0D312E"/>
<path d="M664.945 447.073H19.6074V449.968H664.945V447.073Z" fill="#0D312E"/>
<path d="M278.871 130.293C278.871 134.365 275.572 137.673 271.511 137.673C267.45 137.673 264.15 134.365 264.15 130.293C264.15 126.221 267.45 122.913 271.511 122.913C275.572 122.913 278.871 126.221 278.871 130.293Z" fill="#429F97"/>
<path d="M64.3093 270.582H62.3105C62.6278 270.328 63.0402 270.201 63.4844 270.201H113.231C115.832 270.201 117.958 272.268 117.958 274.845V277.772C117.958 280.317 115.864 282.416 113.231 282.416L64.0555 282.384L64.3093 270.582Z" fill="#828282"/>
<path d="M92.5446 270.201C95.0192 270.201 97.0497 272.173 97.0497 274.622V277.963C97.0497 280.412 95.0192 282.384 92.5446 282.384H61.5801V281.653H61.707L69.575 280.921L71.1613 274.781C71.1613 274.781 68.0839 271.378 67.8935 271.314C67.7032 271.219 61.707 270.964 61.707 270.964H61.5801V270.232H92.5446V270.201Z" fill="#0E283D"/>
<path d="M63.5789 276.277C63.5789 272.682 61.707 270.964 61.707 270.964H91.9101C94.1944 270.964 96.0345 272.777 96.0345 275.036V277.581C96.0345 279.84 94.1944 281.653 91.9101 281.653H61.707C61.707 281.653 63.5789 280.794 63.5789 276.277Z" fill="#CAE4E2"/>
<path d="M96.035 275.036V277.581C96.035 277.931 96.0033 278.249 95.9081 278.567C94.8928 276.118 92.9258 273.764 89.2139 273C80.521 271.219 61.6758 270.964 61.6758 270.964H91.8789C94.1949 270.964 96.035 272.777 96.035 275.036Z" fill="#429F97"/>
<path d="M61.0085 260.816H59.0098C59.327 260.625 59.7395 260.498 60.1836 260.498H109.93C112.531 260.498 114.657 262.152 114.657 264.188V266.51C114.657 268.546 112.531 270.201 109.93 270.201H60.723L61.0085 260.816Z" fill="#5E9F9A"/>
<path d="M89.277 260.53C91.7516 260.53 93.7821 262.089 93.7821 264.029V266.669C93.7821 268.61 91.7516 270.169 89.277 270.169H58.3125V269.564H58.4394L66.3074 268.992L67.8937 264.125C67.8937 264.125 64.8163 261.421 64.626 261.357C64.4356 261.293 58.4394 261.071 58.4394 261.071H58.3125V260.498H89.277V260.53Z" fill="#1D2F49"/>
<path d="M60.3117 265.334C60.3117 262.502 58.4398 261.103 58.4398 261.103H88.6429C90.9272 261.103 92.799 262.534 92.799 264.316V266.351C92.799 268.133 90.9589 269.564 88.6429 269.564H58.4398C58.4081 269.596 60.3117 268.928 60.3117 265.334Z" fill="#CAE4E2"/>
<path d="M92.7674 264.347V266.383C92.7674 266.638 92.7357 266.924 92.6405 267.147C91.6253 265.206 89.6583 263.329 85.9463 262.725C77.2534 261.325 58.4082 261.103 58.4082 261.103H88.6113C90.9273 261.134 92.7674 262.566 92.7674 264.347Z" fill="#429F97"/>
<path d="M122.685 282.385H166.149C167.989 282.385 169.449 280.89 169.449 279.076V259.099C169.449 257.253 167.958 255.79 166.149 255.79H122.685C120.845 255.79 119.385 257.285 119.385 259.099V279.076C119.354 280.89 120.845 282.385 122.685 282.385Z" fill="#0D312E"/>
<path d="M127.698 282.385H171.162C173.003 282.385 174.462 280.89 174.462 279.076V259.099C174.462 257.253 172.971 255.79 171.162 255.79H127.698C125.858 255.79 124.398 257.285 124.398 259.099V279.076C124.398 280.89 125.89 282.385 127.698 282.385Z" fill="#5E9F9A"/>
<path opacity="0.5" d="M130.775 273.064H169.037C169.893 273.064 170.591 272.364 170.591 271.505V262.121C170.591 261.262 169.893 260.562 169.037 260.562H130.775C129.919 260.562 129.221 261.262 129.221 262.121V271.505C129.221 272.364 129.919 273.064 130.775 273.064Z" fill="#5E9F9A"/>
<path d="M138.136 271.091C137.724 271.091 137.343 270.932 137.057 270.646C136.772 270.36 136.613 269.978 136.613 269.564V264.347H136.645C136.645 263.934 136.804 263.552 137.089 263.266C137.375 262.979 137.724 262.82 138.136 262.82H138.993C139.183 262.82 139.342 262.884 139.469 263.011C139.596 263.139 139.659 263.298 139.659 263.488C139.659 263.679 139.596 263.838 139.469 263.966C139.342 264.093 139.183 264.156 138.993 264.156H138.136C138.073 264.156 138.041 264.188 137.977 264.22C137.946 264.252 137.914 264.316 137.914 264.379H137.882V269.596C137.882 269.66 137.914 269.724 137.946 269.755C137.977 269.787 138.041 269.819 138.104 269.819H139.849C139.913 269.819 139.944 269.787 140.008 269.755C140.04 269.724 140.071 269.66 140.071 269.596V264.379C140.071 264.347 140.071 264.316 140.04 264.284C140.008 264.188 139.976 264.125 139.976 264.029C139.976 263.934 140.008 263.87 140.04 263.775C140.103 263.616 140.23 263.488 140.389 263.425C140.484 263.393 140.547 263.361 140.642 263.361C140.738 263.361 140.801 263.393 140.896 263.425C141.055 263.488 141.182 263.616 141.245 263.775C141.277 263.87 141.309 263.966 141.34 264.061C141.372 264.157 141.372 264.252 141.372 264.347V269.564C141.372 269.978 141.214 270.36 140.928 270.646C140.642 270.932 140.262 271.091 139.849 271.091H138.136ZM139.881 270.646C140.167 270.646 140.452 270.551 140.642 270.328C140.865 270.105 140.96 269.851 140.96 269.564V264.347C140.96 264.284 140.96 264.188 140.928 264.125C140.928 264.061 140.896 263.997 140.865 263.934C140.833 263.87 140.801 263.838 140.738 263.807C140.706 263.807 140.674 263.775 140.642 263.775C140.611 263.775 140.579 263.775 140.547 263.807C140.484 263.838 140.452 263.87 140.42 263.934C140.42 263.966 140.389 263.997 140.389 264.029C140.389 264.061 140.389 264.093 140.42 264.125C140.452 264.156 140.452 264.22 140.452 264.252C140.452 264.284 140.452 264.347 140.452 264.379V269.596C140.452 269.787 140.389 269.946 140.262 270.073C140.135 270.201 139.976 270.264 139.786 270.264H138.041C137.851 270.264 137.692 270.201 137.565 270.073C137.438 269.946 137.375 269.787 137.375 269.596V264.379H137.406C137.406 264.188 137.47 264.061 137.597 263.902C137.724 263.775 137.882 263.711 138.041 263.711H138.898C138.961 263.711 139.024 263.679 139.056 263.647C139.088 263.616 139.12 263.552 139.12 263.488C139.12 263.425 139.088 263.393 139.056 263.329C139.024 263.298 138.961 263.266 138.898 263.266H138.041C137.755 263.266 137.47 263.361 137.28 263.584C137.057 263.807 136.962 264.061 136.962 264.347H137.057V269.564C137.057 269.851 137.153 270.137 137.375 270.328C137.597 270.551 137.851 270.646 138.136 270.646H139.881Z" fill="#F47458"/>
<path d="M146.828 271.092C146.638 271.092 146.479 271.028 146.352 270.901C146.225 270.773 146.162 270.614 146.162 270.423V267.815C146.162 267.751 146.13 267.719 146.098 267.656C146.067 267.624 146.003 267.592 145.94 267.592H144.195C143.782 267.592 143.402 267.433 143.116 267.147C142.831 266.861 142.672 266.479 142.672 266.065V263.457C142.672 263.266 142.735 263.139 142.862 262.98C142.989 262.852 143.148 262.789 143.338 262.789C143.528 262.789 143.687 262.852 143.814 262.98C143.941 263.107 144.004 263.266 144.004 263.457V266.065C144.004 266.129 144.036 266.161 144.068 266.224C144.1 266.256 144.163 266.288 144.226 266.288H145.971C146.384 266.288 146.765 266.447 147.05 266.733C147.336 267.02 147.494 267.401 147.494 267.815V270.423C147.494 270.614 147.431 270.742 147.304 270.901C147.177 271.028 147.018 271.092 146.828 271.092ZM146.828 270.646C146.891 270.646 146.923 270.614 146.987 270.583C147.018 270.551 147.05 270.487 147.05 270.423V267.815C147.05 267.529 146.955 267.242 146.733 267.051C146.511 266.829 146.257 266.733 145.971 266.733H144.226C144.036 266.733 143.909 266.67 143.751 266.542C143.624 266.415 143.56 266.256 143.56 266.065V263.457C143.56 263.393 143.528 263.361 143.497 263.298C143.465 263.266 143.402 263.234 143.338 263.234C143.275 263.234 143.243 263.266 143.179 263.298C143.148 263.329 143.116 263.393 143.116 263.457V266.065C143.116 266.352 143.211 266.638 143.433 266.829C143.655 267.051 143.909 267.147 144.195 267.147H145.94C146.13 267.147 146.289 267.21 146.416 267.338C146.542 267.465 146.606 267.624 146.606 267.815V270.423C146.606 270.487 146.638 270.519 146.669 270.583C146.733 270.614 146.796 270.646 146.828 270.646ZM147.494 266.574C147.367 266.415 147.209 266.288 147.05 266.193V263.457C147.05 263.393 147.018 263.361 146.987 263.298C146.955 263.266 146.891 263.234 146.828 263.234C146.765 263.234 146.701 263.266 146.669 263.298C146.638 263.329 146.606 263.393 146.606 263.457V266.065H146.162V263.457C146.162 263.266 146.225 263.139 146.352 262.98C146.479 262.852 146.638 262.789 146.828 262.789C147.018 262.789 147.145 262.852 147.304 262.98C147.431 263.107 147.494 263.266 147.494 263.457V266.574Z" fill="#F47458"/>
<path d="M149.461 265.843C149.271 265.843 149.144 265.779 148.985 265.652C148.858 265.525 148.795 265.366 148.795 265.175C148.795 264.984 148.858 264.857 148.985 264.697C149.112 264.57 149.271 264.507 149.461 264.507C149.652 264.507 149.81 264.57 149.937 264.697C150.064 264.825 150.127 264.984 150.127 265.175C150.127 265.366 150.064 265.525 149.937 265.652C149.778 265.779 149.62 265.843 149.461 265.843ZM149.461 269.342C149.271 269.342 149.144 269.278 148.985 269.151C148.858 269.024 148.795 268.865 148.795 268.674C148.795 268.483 148.858 268.356 148.985 268.197C149.112 268.07 149.271 268.006 149.461 268.006C149.652 268.006 149.81 268.07 149.937 268.197C150.064 268.324 150.127 268.483 150.127 268.674C150.127 268.865 150.064 269.024 149.937 269.151C149.778 269.278 149.62 269.342 149.461 269.342ZM149.461 265.429C149.525 265.429 149.588 265.397 149.62 265.365C149.652 265.334 149.683 265.27 149.683 265.206C149.683 265.143 149.652 265.111 149.62 265.047C149.588 265.016 149.525 264.984 149.493 264.984C149.429 264.984 149.398 265.016 149.334 265.047C149.303 265.079 149.271 265.143 149.271 265.206C149.271 265.27 149.303 265.334 149.334 265.365C149.334 265.397 149.398 265.429 149.461 265.429ZM149.461 268.897C149.525 268.897 149.588 268.865 149.62 268.833C149.652 268.801 149.683 268.738 149.683 268.674C149.683 268.61 149.652 268.579 149.62 268.515C149.588 268.483 149.525 268.451 149.493 268.451C149.429 268.451 149.398 268.483 149.334 268.515C149.303 268.547 149.271 268.61 149.271 268.674C149.271 268.738 149.303 268.769 149.334 268.833C149.334 268.897 149.398 268.897 149.461 268.897Z" fill="#F47458"/>
<path d="M154.981 271.155C154.886 271.155 154.823 271.123 154.728 271.092C154.696 271.092 154.664 271.06 154.633 271.06H152.919C152.507 271.06 152.126 270.901 151.841 270.614C151.555 270.328 151.396 269.946 151.396 269.533V267.783C151.396 267.37 151.555 266.988 151.841 266.702C152.126 266.415 152.507 266.256 152.919 266.256H154.664C154.728 266.256 154.759 266.224 154.823 266.193C154.855 266.161 154.886 266.097 154.886 266.034V264.284H154.855C154.855 264.22 154.823 264.157 154.791 264.125C154.759 264.093 154.696 264.061 154.633 264.061H152.063C151.872 264.061 151.714 263.998 151.587 263.87C151.46 263.743 151.396 263.584 151.396 263.393C151.396 263.202 151.46 263.075 151.587 262.916C151.714 262.789 151.872 262.725 152.063 262.725H154.664C155.077 262.725 155.426 262.884 155.711 263.17C155.997 263.457 156.155 263.839 156.155 264.252H156.187V266.002C156.187 266.415 156.028 266.797 155.743 267.083C155.457 267.37 155.077 267.529 154.664 267.529H152.919C152.856 267.529 152.792 267.561 152.761 267.592C152.729 267.624 152.697 267.688 152.697 267.751V269.501C152.697 269.565 152.729 269.628 152.761 269.66C152.792 269.692 152.856 269.724 152.919 269.724H154.664C154.759 269.724 154.855 269.724 154.95 269.756C155.045 269.787 155.14 269.819 155.235 269.851C155.394 269.915 155.521 270.042 155.584 270.201C155.616 270.296 155.648 270.36 155.648 270.455C155.648 270.551 155.616 270.614 155.584 270.71C155.521 270.869 155.394 270.996 155.235 271.06C155.172 271.123 155.077 271.155 154.981 271.155ZM154.981 270.71C155.013 270.71 155.045 270.71 155.077 270.678C155.14 270.646 155.172 270.614 155.204 270.551C155.204 270.519 155.235 270.487 155.235 270.455C155.235 270.424 155.235 270.392 155.204 270.36C155.172 270.296 155.14 270.265 155.077 270.233C155.013 270.201 154.95 270.201 154.886 270.169C154.823 270.169 154.759 270.137 154.664 270.137H152.919C152.729 270.137 152.57 270.074 152.443 269.946C152.317 269.819 152.253 269.66 152.253 269.469V267.72C152.253 267.529 152.317 267.401 152.443 267.242C152.57 267.115 152.729 267.052 152.919 267.052H154.664C154.95 267.052 155.235 266.956 155.426 266.733C155.648 266.511 155.743 266.256 155.743 265.97V264.22H155.711C155.711 263.934 155.616 263.648 155.394 263.457C155.172 263.234 154.918 263.139 154.633 263.139H152.031C151.968 263.139 151.936 263.17 151.872 263.202C151.841 263.234 151.809 263.298 151.809 263.361C151.809 263.425 151.841 263.489 151.872 263.52C151.904 263.552 151.968 263.584 152.031 263.584H154.633C154.791 263.584 154.95 263.648 155.077 263.775C155.204 263.902 155.267 264.061 155.267 264.252H155.299V266.002C155.299 266.193 155.235 266.32 155.108 266.479C154.981 266.606 154.823 266.67 154.633 266.67H152.919C152.634 266.67 152.348 266.765 152.158 266.988C151.936 267.211 151.841 267.465 151.841 267.751V269.501C151.841 269.787 151.936 270.074 152.158 270.265C152.38 270.487 152.634 270.583 152.919 270.583H154.664C154.696 270.583 154.759 270.583 154.791 270.583C154.823 270.583 154.886 270.614 154.918 270.614C154.95 270.71 154.981 270.71 154.981 270.71Z" fill="#F47458"/>
<path d="M161.613 271.092C161.423 271.092 161.264 271.028 161.137 270.901C161.01 270.773 160.947 270.614 160.947 270.424V264.316H160.915C160.915 264.252 160.883 264.188 160.852 264.157C160.82 264.125 160.757 264.093 160.693 264.093H158.123C157.933 264.093 157.774 264.029 157.647 263.902C157.52 263.775 157.457 263.616 157.457 263.425C157.457 263.234 157.52 263.107 157.647 262.948C157.774 262.821 157.933 262.757 158.123 262.757H160.725C161.137 262.757 161.486 262.916 161.772 263.202C162.057 263.489 162.216 263.87 162.216 264.284H162.248V270.392C162.248 270.583 162.184 270.71 162.057 270.869C161.962 271.028 161.803 271.092 161.613 271.092ZM161.613 270.646C161.677 270.646 161.708 270.614 161.772 270.583C161.803 270.551 161.835 270.487 161.835 270.424V264.316H161.803C161.803 264.029 161.708 263.743 161.486 263.552C161.264 263.33 161.01 263.234 160.725 263.234H158.123C158.06 263.234 158.028 263.266 157.965 263.298C157.933 263.33 157.901 263.393 157.901 263.457C157.901 263.52 157.933 263.584 157.965 263.616C157.996 263.648 158.06 263.679 158.123 263.679H160.725C160.883 263.679 161.042 263.743 161.169 263.87C161.296 263.998 161.359 264.157 161.359 264.348H161.391V270.455C161.391 270.519 161.423 270.551 161.454 270.614C161.518 270.614 161.55 270.646 161.613 270.646Z" fill="#F47458"/>
<path d="M135.438 276.977H133.947C133.82 276.977 133.693 276.881 133.693 276.722V275.227C133.693 275.1 133.789 274.973 133.947 274.973H135.438C135.565 274.973 135.692 275.068 135.692 275.227V276.722C135.692 276.881 135.565 276.977 135.438 276.977Z" fill="#CAE4E2"/>
<path d="M140.737 276.977H139.277C139.15 276.977 139.023 276.881 139.023 276.722V275.227C139.023 275.1 139.119 274.973 139.277 274.973H140.768C140.895 274.973 141.022 275.068 141.022 275.227V276.722C140.99 276.881 140.895 276.977 140.737 276.977Z" fill="#CAE4E2"/>
<path d="M146.067 276.977H144.576C144.449 276.977 144.322 276.881 144.322 276.722V275.227C144.322 275.1 144.417 274.973 144.576 274.973H146.067C146.194 274.973 146.321 275.068 146.321 275.227V276.722C146.289 276.881 146.194 276.977 146.067 276.977Z" fill="#CAE4E2"/>
<path d="M151.366 276.977H149.875C149.748 276.977 149.621 276.881 149.621 276.722V275.227C149.621 275.1 149.716 274.973 149.875 274.973H151.366C151.493 274.973 151.62 275.068 151.62 275.227V276.722C151.62 276.881 151.493 276.977 151.366 276.977Z" fill="#CAE4E2"/>
<path d="M156.663 276.977H155.172C155.045 276.977 154.918 276.881 154.918 276.722V275.227C154.918 275.1 155.013 274.973 155.172 274.973H156.663C156.79 274.973 156.917 275.068 156.917 275.227V276.722C156.917 276.881 156.822 276.977 156.663 276.977Z" fill="#CAE4E2"/>
<path d="M227.117 193.491V190.309L52.4024 190.309V193.491L227.117 193.491Z" fill="#0D312E"/>
<path d="M269.512 73.2661H215.324V147.165H269.512V73.2661Z" fill="#4C968F"/>
<path d="M261.518 82.587H223.352V137.907H261.518V82.587Z" fill="#0D312E"/>
<path d="M384.827 61.0095H299.008V134.908H384.827V61.0095Z" fill="#4C968F"/>
<path d="M376.451 70.3304H307.447V125.651H376.451V70.3304Z" fill="#0D312E"/>
<mask id="mask0" mask-type="alpha" maskUnits="userSpaceOnUse" x="256" y="112" width="175" height="133">
<path d="M256.441 144.672L287.818 243.861L430.427 244.02L281.251 112.829L256.441 144.672Z" fill="url(#paint0_linear)"/>
</mask>
<g mask="url(#mask0)">
<path opacity="0.5" d="M256.441 144.672L287.818 243.861L430.427 244.02L281.251 112.829L256.441 144.672Z" fill="url(#paint1_linear)"/>
<path d="M254.918 239.089H257.52C257.678 239.089 257.805 238.962 257.805 238.803V229.164C257.805 229.005 257.678 228.878 257.52 228.878H254.918C254.76 228.878 254.633 229.005 254.633 229.164V238.803C254.633 238.962 254.76 239.089 254.918 239.089Z" fill="#B75742"/>
<path d="M246.448 104.208L263.422 115.501C263.866 115.819 263.993 116.423 263.707 116.869L258.631 124.535C258.314 124.981 257.711 125.108 257.267 124.822L240.293 113.529C239.849 113.21 239.722 112.606 240.008 112.161L245.084 104.494C245.37 104.017 246.004 103.921 246.448 104.208Z" fill="#B75742"/>
<path d="M279.063 110.507L256.442 144.672C247.019 138.405 244.481 125.681 250.731 116.265C256.95 106.816 269.64 104.24 279.063 110.507Z" fill="#4C968F"/>
<path d="M255.205 146.994L257.33 148.426C257.457 148.521 257.616 148.489 257.711 148.362L282.933 110.284C283.028 110.156 282.997 109.997 282.87 109.902L280.744 108.47C280.617 108.375 280.459 108.407 280.363 108.534L255.141 146.613C255.046 146.74 255.078 146.931 255.205 146.994Z" fill="#1D2F49"/>
<path d="M276.587 233.777H211.771C210.787 233.777 209.994 234.572 209.994 235.558V243.861H278.364V235.558C278.364 234.572 277.57 233.777 276.587 233.777Z" fill="#4C968F"/>
</g>
<path d="M255.364 239.435H257.965C258.124 239.435 258.251 239.308 258.251 239.149V229.51C258.251 229.351 258.124 229.224 257.965 229.224H255.364C255.205 229.224 255.078 229.351 255.078 229.51V239.149C255.078 239.308 255.205 239.435 255.364 239.435Z" fill="#B75742"/>
<path d="M226.843 116.929C228.746 112.984 231.284 110.503 234.362 109.58C239.121 108.117 243.689 110.726 243.721 110.757L245.212 108.181C244.99 108.053 239.47 104.904 233.505 106.717C229.603 107.926 226.462 110.916 224.178 115.624L226.843 116.929Z" fill="#F4F8F7"/>
<path d="M246.863 104.554L263.836 115.847C264.28 116.165 264.407 116.77 264.122 117.215L259.046 124.882C258.728 125.327 258.126 125.454 257.681 125.168L240.676 113.875C240.232 113.557 240.105 112.952 240.391 112.507L245.467 104.84C245.816 104.363 246.419 104.236 246.863 104.554Z" fill="#81BFBA"/>
<path d="M279.477 110.853L256.856 145.019C247.433 138.752 244.895 126.027 251.145 116.611C257.395 107.163 270.086 104.586 279.477 110.853Z" fill="#4A8681"/>
<path d="M203.904 177.943L220.656 114.129L230.395 116.706L213.644 180.52L203.904 177.943ZM222.845 117.915L207.68 175.717L211.423 176.703L226.588 118.901L222.845 117.915Z" fill="#19615A"/>
<path d="M203.492 180.966L213.042 177.689L234.298 240.135L224.749 243.412L203.492 180.966ZM211.106 181.634L207.426 182.874L226.684 239.435L230.364 238.195L211.106 181.634Z" fill="#19615A"/>
<path d="M255.619 147.341L257.744 148.772C257.871 148.868 258.03 148.836 258.125 148.709L283.347 110.63C283.442 110.503 283.411 110.344 283.284 110.248L281.158 108.817C281.031 108.721 280.873 108.753 280.778 108.88L255.555 146.959C255.46 147.086 255.492 147.277 255.619 147.341Z" fill="#1D2F49"/>
<path d="M202.16 180.457C202.16 184.528 205.46 187.837 209.521 187.837C213.582 187.837 216.881 184.528 216.881 180.457C216.881 176.385 213.582 173.076 209.521 173.076C205.46 173.076 202.16 176.385 202.16 180.457Z" fill="#63A59F"/>
<path d="M277.002 234.123H212.218C211.235 234.123 210.441 234.918 210.441 235.904V244.207H278.811V235.904C278.779 234.918 277.986 234.123 277.002 234.123Z" fill="#4A8681"/>
<defs>
<linearGradient id="paint0_linear" x1="256.431" y1="178.431" x2="430.434" y2="178.431" gradientUnits="userSpaceOnUse">
<stop stop-color="white"/>
<stop offset="0.0629674" stop-color="#DADADA"/>
<stop offset="0.1602" stop-color="#A7A7A7"/>
<stop offset="0.2621" stop-color="#7B7B7B"/>
<stop offset="0.3668" stop-color="#555555"/>
<stop offset="0.4749" stop-color="#363636"/>
<stop offset="0.5877" stop-color="#1E1E1E"/>
<stop offset="0.7071" stop-color="#0D0D0D"/>
<stop offset="0.8375" stop-color="#030303"/>
<stop offset="1"/>
</linearGradient>
<linearGradient id="paint1_linear" x1="256.431" y1="178.431" x2="430.434" y2="178.431" gradientUnits="userSpaceOnUse">
<stop stop-color="#CFE8E5"/>
<stop offset="0.40625" stop-color="#A0CBC7"/>
<stop offset="0.71875" stop-color="#6AB8B1"/>
<stop offset="1" stop-color="#378780"/>
</linearGradient>
<clipPath id="clip0">
<rect width="107.002" height="163.423" fill="white" transform="translate(61.7969 21.2747)"/>
</clipPath>
</defs>
</svg>
