<svg width="677" height="450" viewBox="0 0 677 450" fill="none" xmlns="http://www.w3.org/2000/svg">
<path d="M263.692 39.8644C263.692 39.8644 417.246 22.5297 437.614 106.413C448.369 150.796 527.588 118.736 572.798 134.133C604.968 145.112 588.344 182.262 607.696 191.949C702.969 239.691 678.191 448.559 659.695 448.507L24.3518 447.655C24.3518 447.655 -27.0442 385.033 19.4977 348.478C66.0079 311.923 34.0599 295.208 28.4127 281.051C21.9089 264.827 -1.31448 218.507 64.8975 198.227C98.876 187.842 109.441 159.011 112.011 139.765C116.42 106.878 139.009 77.6337 173.273 61.6425C194.974 51.5413 224.257 43.2486 263.692 39.8644Z" fill="#2C5986"/>
<path d="M189.987 0.669212H40.8633V205.432H189.987V0.669212Z" fill="#5284B6"/>
<path d="M181.236 9.49179H49.5664V196.418H181.236V9.49179Z" fill="#001333"/>
<g clip-path="url(#clip0)">
<path opacity="0.2" d="M144.067 55.2017C153.152 55.2017 160.517 47.817 160.517 38.7075C160.517 29.598 153.152 22.2133 144.067 22.2133C134.982 22.2133 127.617 29.598 127.617 38.7075C127.617 47.817 134.982 55.2017 144.067 55.2017Z" fill="#F4F8F7"/>
<path opacity="0.2" d="M153.153 24.9463C154.874 27.5595 155.903 30.7001 155.903 34.0564C155.903 43.1666 148.538 50.5506 139.453 50.5506C136.082 50.5506 132.973 49.5437 130.367 47.7936C133.308 52.2528 138.353 55.1776 144.091 55.1776C153.177 55.1776 160.541 47.7936 160.541 38.6834C160.517 32.9536 157.576 27.8951 153.153 24.9463Z" fill="#F4F8F7"/>
<path d="M67.748 165.051C69.852 165.051 69.852 161.767 67.748 161.767C65.6439 161.767 65.6439 165.051 67.748 165.051Z" fill="white"/>
<path d="M103.708 130.001C105.812 130.001 105.812 126.717 103.708 126.717C101.604 126.717 101.604 130.001 103.708 130.001Z" fill="white"/>
<path d="M159.848 108.089C161.952 108.089 161.952 104.804 159.848 104.804C157.744 104.804 157.744 108.089 159.848 108.089Z" fill="white"/>
<path d="M69.7558 35.2791C71.8598 35.2791 71.8598 31.9946 69.7558 31.9946C67.6517 31.9946 67.6517 35.2791 69.7558 35.2791Z" fill="white"/>
<path d="M105.071 63.257C107.175 63.257 107.175 59.9726 105.071 59.9726C102.943 59.9726 102.943 63.257 105.071 63.257Z" fill="white"/>
<path d="M147.08 171.117C149.184 171.117 149.184 167.832 147.08 167.832C144.976 167.832 144.976 171.117 147.08 171.117Z" fill="white"/>
<path d="M64.0419 110.103C66.1459 110.103 66.1459 106.818 64.0419 106.818C61.9379 106.818 61.9379 110.103 64.0419 110.103Z" fill="white"/>
<path d="M80.1805 129.785C81.1608 129.785 81.1608 128.275 80.1805 128.275C79.2002 128.275 79.2002 129.785 80.1805 129.785Z" fill="white"/>
<path d="M107.079 108.209C108.059 108.209 108.059 106.698 107.079 106.698C106.099 106.698 106.099 108.209 107.079 108.209Z" fill="white"/>
<path d="M138.33 133.837C139.31 133.837 139.31 132.326 138.33 132.326C137.373 132.326 137.373 133.837 138.33 133.837Z" fill="white"/>
<path d="M111.455 178.668C112.435 178.668 112.435 177.158 111.455 177.158C110.475 177.158 110.475 178.668 111.455 178.668Z" fill="white"/>
<path d="M69.7566 184.063C70.7368 184.063 70.7368 182.552 69.7566 182.552C68.8002 182.552 68.7763 184.063 69.7566 184.063Z" fill="white"/>
<path d="M79.1766 62.7056C80.1569 62.7056 80.1569 61.1952 79.1766 61.1952C78.1963 61.1952 78.1963 62.7056 79.1766 62.7056Z" fill="white"/>
<path d="M107.414 23.2681C108.394 23.2681 108.394 21.7578 107.414 21.7578C106.434 21.7578 106.434 23.2681 107.414 23.2681Z" fill="white"/>
<path d="M167.929 64.4078C168.909 64.4078 168.909 62.8975 167.929 62.8975C166.948 62.8735 166.948 64.4078 167.929 64.4078Z" fill="white"/>
<path d="M130.271 67.7641C131.252 67.7641 131.252 66.2537 130.271 66.2537C129.291 66.2537 129.291 67.7641 130.271 67.7641Z" fill="white"/>
<path d="M137.325 115.305C138.305 115.305 138.305 113.794 137.325 113.794C136.368 113.77 136.368 115.305 137.325 115.305Z" fill="white"/>
<path d="M113.462 154.646C114.754 154.646 114.754 152.633 113.462 152.633C112.171 152.633 112.171 154.646 113.462 154.646Z" fill="white"/>
<path d="M158.174 148.533C158.987 148.533 158.987 147.262 158.174 147.262C157.361 147.286 157.361 148.533 158.174 148.533Z" fill="white"/>
</g>
<path d="M51.9574 9.49179H49.5664V196.418H51.9574V9.49179Z" fill="#13375B"/>
<path d="M211.707 254.867H205.584V447.264H211.707V254.867Z" fill="#13375B"/>
<path d="M88.0211 447.08H189.988L189.988 291.649H88.0211L88.0211 447.08Z" fill="#9DB7D1"/>
<path d="M88.0211 337.144H189.988V333.868H88.0211V337.144Z" fill="#13375B"/>
<path d="M88.0211 393.752H189.988V390.475H88.0211V393.752Z" fill="#13375B"/>
<path d="M52.2453 447.08H88.0322L88.0322 291.649H52.2453L52.2453 447.08Z" fill="#13375B"/>
<path d="M54.1875 293.296H190.07C192.925 293.296 195.209 290.974 195.209 288.142V287.57C195.209 284.707 192.893 282.416 190.07 282.416H54.1875C51.3321 282.416 49.0479 284.739 49.0479 287.57V288.142C49.0479 290.974 51.3638 293.296 54.1875 293.296Z" fill="#1D2F49"/>
<path d="M606.029 414.88H607.203C607.584 410.872 608.345 406.482 609.71 401.869C614.881 384.404 612.597 382.146 621.321 371.234C630.014 360.323 630.68 337.673 630.68 337.673C630.68 337.673 634.868 311.969 630.68 300.644C626.493 289.319 626.175 277.995 615.991 266.033C615.991 266.033 614.056 282.035 611.645 289.319C609.234 296.604 606.918 303.539 608.726 321.004C610.534 338.468 611.645 339.932 612.057 344.449C612.47 348.966 611.835 368.053 612.787 371.203C613.739 374.352 607.14 396.175 606.664 405.559C606.505 408.39 606.251 411.603 606.029 414.88Z" fill="#9DB7D1"/>
<path d="M609.709 414.88C611.391 410.999 614.341 407.118 619.513 404.827C633.06 398.751 642.197 398.91 648.478 384.341C654.76 369.803 654.76 349.889 656.949 345.785C656.949 345.785 651.143 344.831 645.338 355.233C639.532 365.667 635.598 373.429 632.235 379.474C628.872 385.55 624.049 383.832 619.925 388.444C616.467 392.294 613.294 401.296 612.089 405.845C611.708 407.341 611.137 408.74 610.376 410.076C609.678 411.285 608.884 412.78 608.409 413.83C608.313 414.053 608.186 414.435 608.091 414.88H609.709Z" fill="#5284B6"/>
<path d="M571.511 345.912C570.56 358.351 578.459 357.396 578.777 365.317C579.094 373.238 589.405 386.663 594.195 396.206C596.67 401.169 597.59 408.74 597.907 414.88H601.746C600.255 399.356 593.973 388.54 590.23 379.855C585.407 368.689 584.678 363.6 588.77 354.883C592.895 346.167 586.835 323.58 592.704 313.528C598.574 303.476 595.56 287.697 594.227 281.621C592.895 275.545 594.354 271.441 595.56 265.047C596.765 258.653 594.227 249.364 594.227 249.364C594.005 257.285 588.009 268.133 583.631 275.068C579.284 282.035 571.067 300.931 572.019 309.52C572.971 318.077 572.495 318.745 572.495 318.745C569.417 330.229 572.463 333.474 571.511 345.912Z" fill="#9DB7D1"/>
<path d="M594.545 404.764C595.052 406.259 596.607 410.044 598.066 414.88H600.414C599.335 408.74 597.495 401.583 594.354 397.479C588.072 389.24 575.477 385.677 574.05 379.696C572.59 373.716 574.208 355.774 565.008 345.753C565.008 345.753 566.308 356.919 565.008 359.909C563.707 362.9 552.761 376.801 559.202 388.444C565.642 400.087 580.173 398.624 584.678 401.233C589.215 403.809 593.751 402.346 594.545 404.764Z" fill="#5284B6"/>
<path d="M588.739 351.098C588.58 363.059 597.939 367.576 597.78 374.225C597.622 380.841 599.716 387.967 601.492 393.312C602.603 396.684 602 406.1 601.81 414.912H604.411C605.077 408.422 605.775 399.07 605.553 394.934C605.236 389.272 607.806 384.754 608.123 374.893C608.44 365.031 610.534 356.124 606.188 343.685C601.841 331.247 602.635 316.359 584.424 302.617C584.424 302.617 581.188 317.155 583.631 325.108C586.01 332.965 588.897 339.136 588.739 351.098Z" fill="#5284B6"/>
<path d="M607.203 404.7H605.458H582.235C580.522 404.7 579.253 406.291 579.665 407.977L588.771 446.469C589.056 447.678 590.103 448.505 591.34 448.505H605.458H607.203H621.321C622.559 448.505 623.606 447.646 623.891 446.469L632.997 407.977C633.377 406.323 632.14 404.7 630.427 404.7H607.203Z" fill="#13375B"/>
<path d="M431.568 254.581H201.65C198.954 254.581 196.765 252.195 196.765 249.269C196.765 246.342 198.954 243.956 201.65 243.956H431.537C434.233 243.956 436.422 246.342 436.422 249.269C436.422 252.195 434.265 254.581 431.568 254.581Z" fill="#001333"/>
<path d="M512.184 163.345C513.77 148.33 505.236 134.461 491.181 130.357C490.42 121.99 486.2 113.91 479.824 108.789C467.197 98.6407 445.274 94.6324 438.294 109.902C427.761 117.219 420.369 131.534 424.906 143.431C415.198 155.52 421.321 174.989 438.041 182.782C439.024 195.157 446.924 206.737 458.409 210.872C461.169 211.858 465.483 213.226 466.055 213.703C465.293 213.131 476.556 236.353 502.857 222.547C529.665 208.454 531.918 176.197 512.184 163.345Z" fill="#13375B"/>
<path d="M473.415 433.14H462.945C459.868 433.14 457.33 435.653 457.33 438.771C457.33 441.856 459.836 444.401 462.945 444.401H473.415C476.524 444.401 479.03 441.888 479.03 438.771C479.03 435.653 476.524 433.14 473.415 433.14Z" fill="#001333"/>
<path d="M472.368 440.87L462.501 440.838C463.802 397.638 464.944 332.043 462.786 328.352C462.786 328.352 462.945 328.575 463.453 328.861L471.479 326.762C472.78 327.43 473.542 327.812 473.827 346.167C473.954 355.615 473.922 368.689 473.668 384.977C473.193 412.717 472.368 440.584 472.368 440.87Z" fill="#001333"/>
<path d="M507.838 438.771H428.555C424.906 438.771 421.956 441.952 421.956 445.896C421.956 446.596 422.463 447.137 423.098 447.137H513.263C513.897 447.137 514.405 446.565 514.405 445.896C514.437 441.952 511.486 438.771 507.838 438.771Z" fill="#13375B"/>
<path d="M367.355 232.599L419.735 217.966C419.735 217.966 430.775 203.11 444.957 183.164C449.589 187.777 452.19 194.839 456.854 199.42L422.209 237.848C420.972 239.248 419.195 240.043 417.323 240.043L369.195 240.202L352.729 241.507V230.945L367.355 232.599Z" fill="#F48C7F"/>
<path d="M442.768 221.434C442.768 221.434 460.756 202.951 465.357 194.935C469.989 186.918 462.216 192.135 454.252 190.004C451.238 189.208 452 171.521 446.321 177.279C436.994 186.695 425.255 203.174 425.255 203.174L442.768 221.434Z" fill="#D7E6F5"/>
<path d="M468.338 169.167C468.338 169.167 484.487 165.986 491.847 172.125C499.208 178.297 490.261 233.14 490.293 242.238C490.293 251.336 495.337 277.008 495.337 277.008C495.337 277.008 446.447 285.597 438.675 271.95C438.675 271.95 436.454 219.97 436.803 213.417C437.12 206.864 444.385 180.142 446.384 177.279C448.351 174.416 468.338 169.167 468.338 169.167Z" fill="#9DB7D1"/>
<path d="M468.434 144.163C468.434 144.163 468.529 144.64 468.656 145.467C469.385 149.412 472.209 162.518 474.113 166.113C476.429 170.471 466.245 184.341 456.441 182.655C453.523 182.146 458.916 169.899 458.662 168.594C458.155 166.113 457.488 162.709 456.822 159.242C456.441 157.27 456.029 155.297 455.68 153.42C454.633 148.108 453.776 143.781 453.776 143.781L468.434 144.163Z" fill="#F7A491"/>
<path d="M468.656 145.467C468.497 144.64 468.434 144.163 468.434 144.163L453.745 143.781C453.745 143.781 454.601 148.108 455.648 153.42C456.029 155.265 456.41 157.238 456.79 159.21C459.043 158.892 461.422 157.779 463.802 155.679C466.403 153.42 468.085 150.685 469.1 147.79C468.941 146.867 468.783 146.072 468.656 145.467Z" fill="#F47458"/>
<path d="M409.677 402.155C409.677 402.155 424.525 420.002 424.62 421.56C424.715 423.119 424.017 440.075 422.272 441.602C420.496 443.161 417.387 444.528 419.068 446.278C420.337 447.582 427.951 447.042 434.392 446.66C436.264 446.564 438.611 431.549 439.373 429.354C440.451 426.141 443.085 418.952 442.101 416.693C441.625 415.612 439.341 413.385 436.105 411.285C432.71 409.09 419.766 391.021 419.766 391.021L409.677 402.155Z" fill="#F48C7F"/>
<path d="M435.883 411.222C435.883 411.222 425.921 439.375 422.019 440.711C420.972 441.061 420.369 441.983 419.417 444.178C419.132 444.846 419.417 447.073 419.417 447.073H435.851C435.851 447.073 438.485 434.667 439.532 429.227C439.532 429.227 445.02 415.93 444.417 414.721C443.783 413.512 435.883 411.222 435.883 411.222Z" fill="#D7E6F5"/>
<path d="M320.781 410.744C320.781 410.744 308.662 427.859 309.741 433.267C310.312 436.162 312.85 439.947 311.39 442.683C309.931 445.419 308.249 446.087 308.249 446.087L270.432 446.691C268.37 446.723 269.734 445.387 271.384 444.178C274.112 442.174 276.301 440.87 284.994 436.639C285.565 436.353 287.628 435.048 288.357 434.603C290.229 433.458 292.133 431.645 293.751 429.831C296.479 426.809 308.408 402.155 308.408 402.155L320.781 410.744Z" fill="#F7A491"/>
<path d="M288.389 434.603C298.383 437.18 305.775 435.43 309.931 433.744C311.01 436.766 312.406 440.552 311.676 442.747C310.756 445.419 309.455 446.024 308.281 446.056C299.144 446.31 274.81 446.628 267.862 446.724C266.879 446.724 266.34 445.61 266.974 444.847C268.687 442.811 287.628 435.08 288.389 434.603Z" fill="#D7E6F5"/>
<path d="M364.626 305.162C364.626 305.162 379.633 322.34 383.471 325.076C387.31 327.812 424.049 395.634 424.049 395.634L410.946 405.209C410.946 405.209 378.11 364.172 362.691 342.191C349.652 323.613 354.442 324.79 346.796 313.496C342.577 307.261 343.529 298.863 349.112 293.805C349.81 293.169 350.572 292.533 351.365 291.833C362.723 282.353 440.515 271.664 440.515 271.664L490.261 276.563C490.261 276.563 449.62 305.162 448.097 305.925C446.574 306.689 391.942 314.673 390.832 314.673C389.722 314.673 364.626 305.162 364.626 305.162Z" fill="#04376A"/>
<path d="M495.306 277.04C495.306 277.04 503.84 302.712 491.023 314.705C478.206 326.698 402.159 325.362 377.127 325.362C377.127 325.362 366.879 353.515 365.737 358.065C364.595 362.614 314.912 421.592 314.912 421.592L301.27 412.844C301.27 412.844 354.76 308.629 358.916 304.048C363.104 299.499 422.654 281.239 437.438 277.04C452.254 272.841 495.306 277.04 495.306 277.04Z" fill="#0B3F73"/>
<path d="M396.352 230.85L441.784 220.765C441.784 220.765 458.218 199.611 473.986 181.383C478.618 185.995 481.219 193.058 485.883 197.638L451.206 236.099C449.969 237.498 447.05 240.012 445.178 240.012H398.002L381.695 239.757V229.196L396.352 230.85Z" fill="#F7A491"/>
<path d="M471.765 219.684C471.765 219.684 489.754 201.201 494.354 193.185C498.986 185.168 495.56 171.712 487.596 169.58C479.665 167.481 454.252 201.456 454.252 201.456L471.765 219.684Z" fill="#D7E6F5"/>
<path d="M422.622 327.971L427.19 308.852C430.395 295.459 442.197 285.725 455.934 285.184L513.992 282.83L515.769 276.913L455.68 279.363C439.373 280.031 425.318 291.61 421.511 307.516L416.625 327.844C418.339 327.875 420.337 327.907 422.622 327.971Z" fill="#001333"/>
<path d="M500.509 317.759C500.509 317.759 420.75 319.127 412.438 317.759C404.125 316.391 400.509 326.857 403.015 332.329C405.49 337.8 412.311 339.932 422.368 340.409C432.425 340.918 516.055 343.272 518.434 341.045C520.369 339.2 545.718 252.291 554.951 220.511C556.791 214.149 553.142 207.532 546.829 205.655C540.515 203.81 533.916 207.373 532.013 213.703L500.509 317.759Z" fill="#5284B6"/>
<path d="M455.395 112.892C455.395 112.892 462.565 112.065 467.07 117.919C471.575 123.772 476.429 141.841 465.23 151.702C454.062 161.532 443.021 150.398 441.372 138.596C439.754 126.762 439.119 112.447 455.395 112.892Z" fill="#F7A491"/>
<path d="M454.601 110.952C454.601 110.952 464.182 128.162 471.067 128.957C477.92 129.752 478.84 138.882 478.84 138.882C478.84 138.882 476.397 117.823 469.607 113.751C462.786 109.679 454.601 110.952 454.601 110.952Z" fill="#13375B"/>
<path d="M469.259 133.252C468.688 136.306 469.83 139.105 471.765 139.519C473.7 139.932 475.731 137.769 476.302 134.715C476.873 131.661 475.731 128.862 473.796 128.448C471.829 128.066 469.798 130.198 469.259 133.252Z" fill="#F7A491"/>
<path d="M287.818 181.923H361.01C362.945 181.923 364.69 183.1 365.42 184.882L387.945 239.98H428.3C429.443 239.98 430.331 240.902 430.331 242.015C430.331 243.161 429.411 244.051 428.3 244.051H313.484C310.312 244.051 307.456 242.206 306.155 239.311L283.471 188.636C282.044 185.518 284.36 181.923 287.818 181.923Z" fill="#828282"/>
<path d="M327.221 214.021C327.729 216.503 329.855 218.157 332.044 217.711C334.201 217.266 335.565 214.912 335.058 212.431C334.55 209.949 332.424 208.295 330.235 208.741C328.078 209.186 326.745 211.54 327.221 214.021Z" fill="white"/>
<path d="M208.659 330.035H421.699V323.514H208.659V330.035Z" fill="#13375B"/>
<path d="M424.62 254.867H418.497V447.264H424.62V254.867Z" fill="#13375B"/>
<path d="M664.944 447.073H19.6064V449.968H664.944V447.073Z" fill="#001333"/>
<path d="M278.871 130.293C278.871 134.365 275.572 137.673 271.511 137.673C267.45 137.673 264.15 134.365 264.15 130.293C264.15 126.221 267.45 122.913 271.511 122.913C275.572 122.913 278.871 126.221 278.871 130.293Z" fill="#D3D9F4"/>
<path d="M64.3083 270.582H62.3096C62.6268 270.328 63.0393 270.201 63.4834 270.201H113.23C115.831 270.201 117.957 272.268 117.957 274.845V277.772C117.957 280.317 115.863 282.416 113.23 282.416L64.0545 282.384L64.3083 270.582Z" fill="#828282"/>
<path d="M92.5446 270.201C95.0192 270.201 97.0497 272.173 97.0497 274.622V277.963C97.0497 280.412 95.0192 282.384 92.5446 282.384H61.5801V281.653H61.707L69.575 280.921L71.1613 274.781C71.1613 274.781 68.0839 271.378 67.8935 271.314C67.7032 271.219 61.707 270.964 61.707 270.964H61.5801V270.232H92.5446V270.201Z" fill="#0E283D"/>
<path d="M63.5789 276.277C63.5789 272.682 61.707 270.964 61.707 270.964H91.9101C94.1944 270.964 96.0345 272.777 96.0345 275.036V277.581C96.0345 279.84 94.1944 281.653 91.9101 281.653H61.707C61.707 281.653 63.5789 280.794 63.5789 276.277Z" fill="#CED3F1"/>
<path d="M96.035 275.036V277.581C96.035 277.931 96.0033 278.249 95.9081 278.567C94.8928 276.118 92.9258 273.764 89.2139 273C80.521 271.219 61.6758 270.964 61.6758 270.964H91.8789C94.1949 270.964 96.035 272.777 96.035 275.036Z" fill="#DAEEF7"/>
<path d="M61.0095 260.816H59.0107C59.328 260.625 59.7404 260.498 60.1846 260.498H109.931C112.532 260.498 114.658 262.152 114.658 264.188V266.51C114.658 268.546 112.532 270.201 109.931 270.201H60.7239L61.0095 260.816Z" fill="#9DB7D1"/>
<path d="M89.277 260.53C91.7516 260.53 93.7821 262.089 93.7821 264.029V266.669C93.7821 268.61 91.7516 270.169 89.277 270.169H58.3125V269.564H58.4394L66.3074 268.992L67.8937 264.125C67.8937 264.125 64.8163 261.421 64.626 261.357C64.4356 261.293 58.4394 261.071 58.4394 261.071H58.3125V260.498H89.277V260.53Z" fill="#1D2F49"/>
<path d="M60.3117 265.334C60.3117 262.502 58.4398 261.103 58.4398 261.103H88.6429C90.9272 261.103 92.799 262.534 92.799 264.316V266.351C92.799 268.133 90.9589 269.564 88.6429 269.564H58.4398C58.4081 269.596 60.3117 268.928 60.3117 265.334Z" fill="#CED3F1"/>
<path d="M92.7664 264.347V266.383C92.7664 266.638 92.7347 266.924 92.6395 267.147C91.6243 265.206 89.6573 263.329 85.9453 262.725C77.2524 261.325 58.4072 261.103 58.4072 261.103H88.6103C90.9263 261.134 92.7664 262.566 92.7664 264.347Z" fill="#DAEEF7"/>
<path d="M122.685 282.385H166.149C167.989 282.385 169.449 280.89 169.449 279.076V259.099C169.449 257.253 167.958 255.79 166.149 255.79H122.685C120.845 255.79 119.385 257.285 119.385 259.099V279.076C119.354 280.89 120.845 282.385 122.685 282.385Z" fill="#13375B"/>
<path d="M127.697 282.385H171.161C173.002 282.385 174.461 280.89 174.461 279.076V259.099C174.461 257.253 172.97 255.79 171.161 255.79H127.697C125.857 255.79 124.397 257.285 124.397 259.099V279.076C124.397 280.89 125.889 282.385 127.697 282.385Z" fill="#9DB7D1"/>
<path opacity="0.5" d="M130.775 273.064H169.037C169.893 273.064 170.591 272.364 170.591 271.505V262.121C170.591 261.262 169.893 260.562 169.037 260.562H130.775C129.919 260.562 129.221 261.262 129.221 262.121V271.505C129.221 272.364 129.919 273.064 130.775 273.064Z" fill="#9DB7D1"/>
<path d="M138.135 271.091C137.723 271.091 137.342 270.932 137.056 270.646C136.771 270.36 136.612 269.978 136.612 269.564V264.347H136.644C136.644 263.934 136.803 263.552 137.088 263.266C137.374 262.979 137.723 262.82 138.135 262.82H138.992C139.182 262.82 139.341 262.884 139.468 263.011C139.595 263.139 139.658 263.298 139.658 263.488C139.658 263.679 139.595 263.838 139.468 263.966C139.341 264.093 139.182 264.156 138.992 264.156H138.135C138.072 264.156 138.04 264.188 137.977 264.22C137.945 264.252 137.913 264.316 137.913 264.379H137.881V269.596C137.881 269.66 137.913 269.724 137.945 269.755C137.977 269.787 138.04 269.819 138.103 269.819H139.848C139.912 269.819 139.944 269.787 140.007 269.755C140.039 269.724 140.07 269.66 140.07 269.596V264.379C140.07 264.347 140.07 264.316 140.039 264.284C140.007 264.188 139.975 264.125 139.975 264.029C139.975 263.934 140.007 263.87 140.039 263.775C140.102 263.616 140.229 263.488 140.388 263.425C140.483 263.393 140.546 263.361 140.641 263.361C140.737 263.361 140.8 263.393 140.895 263.425C141.054 263.488 141.181 263.616 141.244 263.775C141.276 263.87 141.308 263.966 141.339 264.061C141.371 264.157 141.371 264.252 141.371 264.347V269.564C141.371 269.978 141.213 270.36 140.927 270.646C140.641 270.932 140.261 271.091 139.848 271.091H138.135ZM139.88 270.646C140.166 270.646 140.451 270.551 140.641 270.328C140.864 270.105 140.959 269.851 140.959 269.564V264.347C140.959 264.284 140.959 264.188 140.927 264.125C140.927 264.061 140.895 263.997 140.864 263.934C140.832 263.87 140.8 263.838 140.737 263.807C140.705 263.807 140.673 263.775 140.641 263.775C140.61 263.775 140.578 263.775 140.546 263.807C140.483 263.838 140.451 263.87 140.419 263.934C140.419 263.966 140.388 263.997 140.388 264.029C140.388 264.061 140.388 264.093 140.419 264.125C140.451 264.156 140.451 264.22 140.451 264.252C140.451 264.284 140.451 264.347 140.451 264.379V269.596C140.451 269.787 140.388 269.946 140.261 270.073C140.134 270.201 139.975 270.264 139.785 270.264H138.04C137.85 270.264 137.691 270.201 137.564 270.073C137.437 269.946 137.374 269.787 137.374 269.596V264.379H137.405C137.405 264.188 137.469 264.061 137.596 263.902C137.723 263.775 137.881 263.711 138.04 263.711H138.897C138.96 263.711 139.023 263.679 139.055 263.647C139.087 263.616 139.119 263.552 139.119 263.488C139.119 263.425 139.087 263.393 139.055 263.329C139.023 263.298 138.96 263.266 138.897 263.266H138.04C137.754 263.266 137.469 263.361 137.279 263.584C137.056 263.807 136.961 264.061 136.961 264.347H137.056V269.564C137.056 269.851 137.152 270.137 137.374 270.328C137.596 270.551 137.85 270.646 138.135 270.646H139.88Z" fill="#F47458"/>
<path d="M146.828 271.092C146.638 271.092 146.479 271.028 146.352 270.901C146.225 270.773 146.162 270.614 146.162 270.423V267.815C146.162 267.751 146.13 267.719 146.098 267.656C146.067 267.624 146.003 267.592 145.94 267.592H144.195C143.782 267.592 143.402 267.433 143.116 267.147C142.831 266.861 142.672 266.479 142.672 266.065V263.457C142.672 263.266 142.735 263.139 142.862 262.98C142.989 262.852 143.148 262.789 143.338 262.789C143.528 262.789 143.687 262.852 143.814 262.98C143.941 263.107 144.004 263.266 144.004 263.457V266.065C144.004 266.129 144.036 266.161 144.068 266.224C144.1 266.256 144.163 266.288 144.226 266.288H145.971C146.384 266.288 146.765 266.447 147.05 266.733C147.336 267.02 147.494 267.401 147.494 267.815V270.423C147.494 270.614 147.431 270.742 147.304 270.901C147.177 271.028 147.018 271.092 146.828 271.092ZM146.828 270.646C146.891 270.646 146.923 270.614 146.987 270.583C147.018 270.551 147.05 270.487 147.05 270.423V267.815C147.05 267.529 146.955 267.242 146.733 267.051C146.511 266.829 146.257 266.733 145.971 266.733H144.226C144.036 266.733 143.909 266.67 143.751 266.542C143.624 266.415 143.56 266.256 143.56 266.065V263.457C143.56 263.393 143.528 263.361 143.497 263.298C143.465 263.266 143.402 263.234 143.338 263.234C143.275 263.234 143.243 263.266 143.179 263.298C143.148 263.329 143.116 263.393 143.116 263.457V266.065C143.116 266.352 143.211 266.638 143.433 266.829C143.655 267.051 143.909 267.147 144.195 267.147H145.94C146.13 267.147 146.289 267.21 146.416 267.338C146.542 267.465 146.606 267.624 146.606 267.815V270.423C146.606 270.487 146.638 270.519 146.669 270.583C146.733 270.614 146.796 270.646 146.828 270.646ZM147.494 266.574C147.367 266.415 147.209 266.288 147.05 266.193V263.457C147.05 263.393 147.018 263.361 146.987 263.298C146.955 263.266 146.891 263.234 146.828 263.234C146.765 263.234 146.701 263.266 146.669 263.298C146.638 263.329 146.606 263.393 146.606 263.457V266.065H146.162V263.457C146.162 263.266 146.225 263.139 146.352 262.98C146.479 262.852 146.638 262.789 146.828 262.789C147.018 262.789 147.145 262.852 147.304 262.98C147.431 263.107 147.494 263.266 147.494 263.457V266.574Z" fill="#F47458"/>
<path d="M149.461 265.843C149.271 265.843 149.144 265.779 148.985 265.652C148.858 265.525 148.795 265.366 148.795 265.175C148.795 264.984 148.858 264.857 148.985 264.697C149.112 264.57 149.271 264.507 149.461 264.507C149.652 264.507 149.81 264.57 149.937 264.697C150.064 264.825 150.127 264.984 150.127 265.175C150.127 265.366 150.064 265.525 149.937 265.652C149.778 265.779 149.62 265.843 149.461 265.843ZM149.461 269.342C149.271 269.342 149.144 269.278 148.985 269.151C148.858 269.024 148.795 268.865 148.795 268.674C148.795 268.483 148.858 268.356 148.985 268.197C149.112 268.07 149.271 268.006 149.461 268.006C149.652 268.006 149.81 268.07 149.937 268.197C150.064 268.324 150.127 268.483 150.127 268.674C150.127 268.865 150.064 269.024 149.937 269.151C149.778 269.278 149.62 269.342 149.461 269.342ZM149.461 265.429C149.525 265.429 149.588 265.397 149.62 265.365C149.652 265.334 149.683 265.27 149.683 265.206C149.683 265.143 149.652 265.111 149.62 265.047C149.588 265.016 149.525 264.984 149.493 264.984C149.429 264.984 149.398 265.016 149.334 265.047C149.303 265.079 149.271 265.143 149.271 265.206C149.271 265.27 149.303 265.334 149.334 265.365C149.334 265.397 149.398 265.429 149.461 265.429ZM149.461 268.897C149.525 268.897 149.588 268.865 149.62 268.833C149.652 268.801 149.683 268.738 149.683 268.674C149.683 268.61 149.652 268.579 149.62 268.515C149.588 268.483 149.525 268.451 149.493 268.451C149.429 268.451 149.398 268.483 149.334 268.515C149.303 268.547 149.271 268.61 149.271 268.674C149.271 268.738 149.303 268.769 149.334 268.833C149.334 268.897 149.398 268.897 149.461 268.897Z" fill="#F47458"/>
<path d="M154.981 271.155C154.886 271.155 154.823 271.123 154.728 271.092C154.696 271.092 154.664 271.06 154.633 271.06H152.919C152.507 271.06 152.126 270.901 151.841 270.614C151.555 270.328 151.396 269.946 151.396 269.533V267.783C151.396 267.37 151.555 266.988 151.841 266.702C152.126 266.415 152.507 266.256 152.919 266.256H154.664C154.728 266.256 154.759 266.224 154.823 266.193C154.855 266.161 154.886 266.097 154.886 266.034V264.284H154.855C154.855 264.22 154.823 264.157 154.791 264.125C154.759 264.093 154.696 264.061 154.633 264.061H152.063C151.872 264.061 151.714 263.998 151.587 263.87C151.46 263.743 151.396 263.584 151.396 263.393C151.396 263.202 151.46 263.075 151.587 262.916C151.714 262.789 151.872 262.725 152.063 262.725H154.664C155.077 262.725 155.426 262.884 155.711 263.17C155.997 263.457 156.155 263.839 156.155 264.252H156.187V266.002C156.187 266.415 156.028 266.797 155.743 267.083C155.457 267.37 155.077 267.529 154.664 267.529H152.919C152.856 267.529 152.792 267.561 152.761 267.592C152.729 267.624 152.697 267.688 152.697 267.751V269.501C152.697 269.565 152.729 269.628 152.761 269.66C152.792 269.692 152.856 269.724 152.919 269.724H154.664C154.759 269.724 154.855 269.724 154.95 269.756C155.045 269.787 155.14 269.819 155.235 269.851C155.394 269.915 155.521 270.042 155.584 270.201C155.616 270.296 155.648 270.36 155.648 270.455C155.648 270.551 155.616 270.614 155.584 270.71C155.521 270.869 155.394 270.996 155.235 271.06C155.172 271.123 155.077 271.155 154.981 271.155ZM154.981 270.71C155.013 270.71 155.045 270.71 155.077 270.678C155.14 270.646 155.172 270.614 155.204 270.551C155.204 270.519 155.235 270.487 155.235 270.455C155.235 270.424 155.235 270.392 155.204 270.36C155.172 270.296 155.14 270.265 155.077 270.233C155.013 270.201 154.95 270.201 154.886 270.169C154.823 270.169 154.759 270.137 154.664 270.137H152.919C152.729 270.137 152.57 270.074 152.443 269.946C152.317 269.819 152.253 269.66 152.253 269.469V267.72C152.253 267.529 152.317 267.401 152.443 267.242C152.57 267.115 152.729 267.052 152.919 267.052H154.664C154.95 267.052 155.235 266.956 155.426 266.733C155.648 266.511 155.743 266.256 155.743 265.97V264.22H155.711C155.711 263.934 155.616 263.648 155.394 263.457C155.172 263.234 154.918 263.139 154.633 263.139H152.031C151.968 263.139 151.936 263.17 151.872 263.202C151.841 263.234 151.809 263.298 151.809 263.361C151.809 263.425 151.841 263.489 151.872 263.52C151.904 263.552 151.968 263.584 152.031 263.584H154.633C154.791 263.584 154.95 263.648 155.077 263.775C155.204 263.902 155.267 264.061 155.267 264.252H155.299V266.002C155.299 266.193 155.235 266.32 155.108 266.479C154.981 266.606 154.823 266.67 154.633 266.67H152.919C152.634 266.67 152.348 266.765 152.158 266.988C151.936 267.211 151.841 267.465 151.841 267.751V269.501C151.841 269.787 151.936 270.074 152.158 270.265C152.38 270.487 152.634 270.583 152.919 270.583H154.664C154.696 270.583 154.759 270.583 154.791 270.583C154.823 270.583 154.886 270.614 154.918 270.614C154.95 270.71 154.981 270.71 154.981 270.71Z" fill="#F47458"/>
<path d="M161.612 271.092C161.422 271.092 161.263 271.028 161.136 270.901C161.009 270.773 160.946 270.614 160.946 270.424V264.316H160.914C160.914 264.252 160.882 264.188 160.851 264.157C160.819 264.125 160.756 264.093 160.692 264.093H158.122C157.932 264.093 157.773 264.029 157.646 263.902C157.52 263.775 157.456 263.616 157.456 263.425C157.456 263.234 157.52 263.107 157.646 262.948C157.773 262.821 157.932 262.757 158.122 262.757H160.724C161.136 262.757 161.485 262.916 161.771 263.202C162.056 263.489 162.215 263.87 162.215 264.284H162.247V270.392C162.247 270.583 162.183 270.71 162.056 270.869C161.961 271.028 161.802 271.092 161.612 271.092ZM161.612 270.646C161.676 270.646 161.707 270.614 161.771 270.583C161.802 270.551 161.834 270.487 161.834 270.424V264.316H161.802C161.802 264.029 161.707 263.743 161.485 263.552C161.263 263.33 161.009 263.234 160.724 263.234H158.122C158.059 263.234 158.027 263.266 157.964 263.298C157.932 263.33 157.9 263.393 157.9 263.457C157.9 263.52 157.932 263.584 157.964 263.616C157.995 263.648 158.059 263.679 158.122 263.679H160.724C160.882 263.679 161.041 263.743 161.168 263.87C161.295 263.998 161.358 264.157 161.358 264.348H161.39V270.455C161.39 270.519 161.422 270.551 161.453 270.614C161.517 270.614 161.549 270.646 161.612 270.646Z" fill="#F47458"/>
<path d="M135.438 276.977H133.947C133.82 276.977 133.693 276.881 133.693 276.722V275.227C133.693 275.1 133.789 274.973 133.947 274.973H135.438C135.565 274.973 135.692 275.068 135.692 275.227V276.722C135.692 276.881 135.565 276.977 135.438 276.977Z" fill="#CED3F1"/>
<path d="M140.737 276.977H139.277C139.15 276.977 139.023 276.881 139.023 276.722V275.227C139.023 275.1 139.119 274.973 139.277 274.973H140.768C140.895 274.973 141.022 275.068 141.022 275.227V276.722C140.99 276.881 140.895 276.977 140.737 276.977Z" fill="#CED3F1"/>
<path d="M146.067 276.977H144.576C144.449 276.977 144.322 276.881 144.322 276.722V275.227C144.322 275.1 144.417 274.973 144.576 274.973H146.067C146.194 274.973 146.321 275.068 146.321 275.227V276.722C146.289 276.881 146.194 276.977 146.067 276.977Z" fill="#CED3F1"/>
<path d="M151.365 276.977H149.874C149.747 276.977 149.62 276.881 149.62 276.722V275.227C149.62 275.1 149.715 274.973 149.874 274.973H151.365C151.492 274.973 151.619 275.068 151.619 275.227V276.722C151.619 276.881 151.492 276.977 151.365 276.977Z" fill="#CED3F1"/>
<path d="M156.663 276.977H155.172C155.045 276.977 154.918 276.881 154.918 276.722V275.227C154.918 275.1 155.013 274.973 155.172 274.973H156.663C156.79 274.973 156.917 275.068 156.917 275.227V276.722C156.917 276.881 156.822 276.977 156.663 276.977Z" fill="#CED3F1"/>
<path d="M227.118 193.491V190.309L52.4034 190.309V193.491L227.118 193.491Z" fill="#13375B"/>
<path d="M269.511 73.2661H215.323V147.165H269.511V73.2661Z" fill="#5284B6"/>
<path d="M261.516 82.587H223.35V137.907H261.516V82.587Z" fill="#13375B"/>
<path d="M384.827 61.0095H299.008V134.908H384.827V61.0095Z" fill="#5284B6"/>
<path d="M376.451 70.3304H307.447V125.651H376.451V70.3304Z" fill="#13375B"/>
<mask id="mask0" mask-type="alpha" maskUnits="userSpaceOnUse" x="256" y="112" width="175" height="133">
<path d="M256.441 144.672L287.818 243.861L430.426 244.02L281.251 112.829L256.441 144.672Z" fill="url(#paint0_linear)"/>
</mask>
<g mask="url(#mask0)">
<path opacity="0.5" d="M256.441 144.672L287.818 243.861L430.426 244.02L281.251 112.829L256.441 144.672Z" fill="url(#paint1_linear)"/>
<path d="M254.918 239.089H257.519C257.678 239.089 257.805 238.962 257.805 238.803V229.164C257.805 229.005 257.678 228.878 257.519 228.878H254.918C254.759 228.878 254.632 229.005 254.632 229.164V238.803C254.632 238.962 254.759 239.089 254.918 239.089Z" fill="#B75742"/>
<path d="M246.447 104.208L263.42 115.501C263.864 115.819 263.991 116.423 263.706 116.869L258.63 124.535C258.312 124.981 257.71 125.108 257.265 124.822L240.292 113.529C239.848 113.21 239.721 112.606 240.006 112.161L245.083 104.494C245.368 104.017 246.003 103.921 246.447 104.208Z" fill="#B75742"/>
<path d="M279.061 110.507L256.441 144.672C247.018 138.405 244.48 125.681 250.73 116.265C256.948 106.816 269.638 104.24 279.061 110.507Z" fill="#5284B6"/>
<path d="M255.203 146.994L257.329 148.426C257.456 148.521 257.614 148.489 257.71 148.362L282.932 110.284C283.027 110.156 282.995 109.997 282.868 109.902L280.743 108.47C280.616 108.375 280.457 108.407 280.362 108.534L255.14 146.613C255.045 146.74 255.076 146.931 255.203 146.994Z" fill="#1D2F49"/>
<path d="M276.587 233.777H211.771C210.787 233.777 209.994 234.572 209.994 235.558V243.861H278.364V235.558C278.364 234.572 277.57 233.777 276.587 233.777Z" fill="#5284B6"/>
</g>
<path d="M255.365 239.435H257.966C258.125 239.435 258.252 239.308 258.252 239.149V229.51C258.252 229.351 258.125 229.224 257.966 229.224H255.365C255.206 229.224 255.079 229.351 255.079 229.51V239.149C255.079 239.308 255.206 239.435 255.365 239.435Z" fill="#B75742"/>
<path d="M226.843 116.929C228.746 112.984 231.284 110.503 234.362 109.58C239.121 108.117 243.689 110.726 243.721 110.757L245.212 108.181C244.99 108.053 239.47 104.904 233.505 106.717C229.603 107.926 226.462 110.916 224.178 115.624L226.843 116.929Z" fill="#F4F8F7"/>
<path d="M246.862 104.554L263.835 115.847C264.279 116.165 264.406 116.77 264.121 117.215L259.045 124.882C258.727 125.327 258.125 125.454 257.68 125.168L240.675 113.875C240.231 113.557 240.104 112.952 240.39 112.507L245.466 104.84C245.815 104.363 246.418 104.236 246.862 104.554Z" fill="#D7E6F5"/>
<path d="M279.476 110.853L256.856 145.019C247.433 138.752 244.895 126.027 251.145 116.611C257.395 107.163 270.085 104.586 279.476 110.853Z" fill="#466EB6"/>
<path d="M203.905 177.943L220.657 114.129L230.396 116.706L213.645 180.52L203.905 177.943ZM222.846 117.915L207.681 175.717L211.424 176.703L226.589 118.901L222.846 117.915Z" fill="#04376A"/>
<path d="M203.493 180.966L213.043 177.689L234.299 240.135L224.75 243.412L203.493 180.966ZM211.107 181.634L207.427 182.874L226.685 239.435L230.365 238.195L211.107 181.634Z" fill="#04376A"/>
<path d="M255.618 147.341L257.744 148.772C257.871 148.868 258.029 148.836 258.125 148.709L283.347 110.63C283.442 110.503 283.41 110.344 283.283 110.248L281.158 108.817C281.031 108.721 280.872 108.753 280.777 108.88L255.555 146.959C255.46 147.086 255.491 147.277 255.618 147.341Z" fill="#1D2F49"/>
<path d="M202.16 180.457C202.16 184.528 205.46 187.837 209.521 187.837C213.582 187.837 216.881 184.528 216.881 180.457C216.881 176.385 213.582 173.076 209.521 173.076C205.46 173.076 202.16 176.385 202.16 180.457Z" fill="#9DB7D1"/>
<path d="M277.001 234.123H212.217C211.234 234.123 210.44 234.918 210.44 235.904V244.207H278.81V235.904C278.778 234.918 277.985 234.123 277.001 234.123Z" fill="#466EB6"/>
<defs>
<linearGradient id="paint0_linear" x1="256.431" y1="178.431" x2="430.434" y2="178.431" gradientUnits="userSpaceOnUse">
<stop stop-color="white"/>
<stop offset="0.0629674" stop-color="#DADADA"/>
<stop offset="0.1602" stop-color="#A7A7A7"/>
<stop offset="0.2621" stop-color="#7B7B7B"/>
<stop offset="0.3668" stop-color="#555555"/>
<stop offset="0.4749" stop-color="#363636"/>
<stop offset="0.5877" stop-color="#1E1E1E"/>
<stop offset="0.7071" stop-color="#0D0D0D"/>
<stop offset="0.8375" stop-color="#030303"/>
<stop offset="1"/>
</linearGradient>
<linearGradient id="paint1_linear" x1="256.431" y1="178.431" x2="430.434" y2="178.431" gradientUnits="userSpaceOnUse">
<stop stop-color="white"/>
<stop offset="0.0629674" stop-color="#A2BAD2"/>
<stop offset="0.1602" stop-color="#789FC6"/>
<stop offset="0.2621" stop-color="#668DB4"/>
<stop offset="0.3668" stop-color="#4E7EAE"/>
<stop offset="0.4749" stop-color="#356494"/>
<stop offset="0.5877" stop-color="#336699"/>
<stop offset="0.7071" stop-color="#336699"/>
<stop offset="0.8375" stop-color="#336699"/>
<stop offset="1" stop-color="#336699"/>
</linearGradient>
<clipPath id="clip0">
<rect width="107.002" height="163.423" fill="white" transform="translate(61.7969 21.2747)"/>
</clipPath>
</defs>
</svg>
