<svg width="30" height="30" viewBox="0 0 30 30" fill="none" xmlns="http://www.w3.org/2000/svg">
<path fill-rule="evenodd" clip-rule="evenodd" d="M8.4975 2.25C4.7025 2.25 2.25 4.8495 2.25 8.874V21.126C2.25 25.1505 4.7025 27.75 8.4975 27.75H21.4995C25.296 27.75 27.75 25.1505 27.75 21.126V8.874C27.75 4.8495 25.296 2.25 21.501 2.25H8.4975ZM21.4995 30H8.4975C3.414 30 0 26.433 0 21.126V8.874C0 3.567 3.414 0 8.4975 0H21.501C26.5845 0 30 3.567 30 8.874V21.126C30 26.433 26.5845 30 21.4995 30Z" fill="white"/>
<path d="M15.4655 20.91C16.0635 20.91 16.5483 20.4252 16.5483 19.8272C16.5483 19.2293 16.0635 18.7445 15.4655 18.7445C14.8676 18.7445 14.3828 19.2293 14.3828 19.8272C14.3828 20.4252 14.8676 20.91 15.4655 20.91Z" fill="white"/>
<path d="M15.4647 9C13.5543 9 12 10.5543 12 12.4647C12 12.9431 12.3878 13.3309 12.8662 13.3309C13.3446 13.3309 13.7324 12.9431 13.7324 12.4647C13.7324 11.5095 14.5095 10.7324 15.4647 10.7324C16.42 10.7324 17.1971 11.5095 17.1971 12.4647C17.1971 13.42 16.42 14.1971 15.4647 14.1971C14.9863 14.1971 14.5985 14.5849 14.5985 15.0633V17.2287C14.5985 17.7071 14.9863 18.0949 15.4647 18.0949C15.9431 18.0949 16.3309 17.7071 16.3309 17.2287V15.8198C17.8236 15.4343 18.9295 14.0762 18.9295 12.4647C18.9295 10.5543 17.3752 9 15.4647 9Z" fill="white"/>
</svg>
