<svg width="26" height="24" viewBox="0 0 26 24" fill="none" xmlns="http://www.w3.org/2000/svg">
<path fill-rule="evenodd" clip-rule="evenodd" d="M12.739 13.7089C11.9585 13.7089 11.1804 13.4511 10.5294 12.9354L5.29687 8.71676C4.92003 8.41343 4.8617 7.8616 5.16387 7.48593C5.46837 7.11143 6.01903 7.05193 6.3947 7.3541L11.6225 11.5681C12.2794 12.0884 13.2045 12.0884 13.866 11.5634L19.0414 7.35643C19.417 7.0496 19.9677 7.10793 20.2734 7.4836C20.5779 7.8581 20.5207 8.40876 20.1462 8.71443L14.9615 12.9284C14.3059 13.4488 13.5219 13.7089 12.739 13.7089Z" fill="#429E96"/>
<mask id="mask0" mask-type="alpha" maskUnits="userSpaceOnUse" x="0" y="0" width="26" height="24">
<path fill-rule="evenodd" clip-rule="evenodd" d="M0.166016 0.333313H25.2492V23.0833H0.166016V0.333313Z" fill="white"/>
</mask>
<g mask="url(#mask0)">
<path fill-rule="evenodd" clip-rule="evenodd" d="M6.97818 21.3333H18.4349C18.4372 21.331 18.4465 21.3333 18.4535 21.3333C19.7847 21.3333 20.9654 20.8573 21.8707 19.9531C22.9219 18.9066 23.4994 17.4028 23.4994 15.7193V7.70665C23.4994 4.44815 21.369 2.08331 18.4349 2.08331H6.98052C4.04635 2.08331 1.91602 4.44815 1.91602 7.70665V15.7193C1.91602 17.4028 2.49468 18.9066 3.54468 19.9531C4.45002 20.8573 5.63185 21.3333 6.96185 21.3333H6.97818ZM6.95835 23.0833C5.15818 23.0833 3.55052 22.43 2.30918 21.1933C0.926682 19.8143 0.166016 17.8706 0.166016 15.7193V7.70665C0.166016 3.50315 3.09552 0.333313 6.98052 0.333313H18.4349C22.3199 0.333313 25.2494 3.50315 25.2494 7.70665V15.7193C25.2494 17.8706 24.4887 19.8143 23.1062 21.1933C21.866 22.4288 20.2572 23.0833 18.4535 23.0833H18.4349H6.98052H6.95835Z" fill="#429E96"/>
</g>
</svg>
