<svg width="21" height="20" viewBox="0 0 21 20" fill="none" xmlns="http://www.w3.org/2000/svg">
<path fill-rule="evenodd" clip-rule="evenodd" d="M9.319 20H4.433C1.989 20 0 18.011 0 15.565V4.436C0 1.99 1.989 0 4.433 0H9.308C11.754 0 13.744 1.99 13.744 4.436V5.368C13.744 5.782 13.408 6.118 12.994 6.118C12.58 6.118 12.244 5.782 12.244 5.368V4.436C12.244 2.816 10.927 1.5 9.308 1.5H4.433C2.816 1.5 1.5 2.816 1.5 4.436V15.565C1.5 17.184 2.816 18.5 4.433 18.5H9.319C10.931 18.5 12.244 17.188 12.244 15.576V14.633C12.244 14.219 12.58 13.883 12.994 13.883C13.408 13.883 13.744 14.219 13.744 14.633V15.576C13.744 18.016 11.758 20 9.319 20Z" fill="#429F97"/>
<mask id="mask0" mask-type="alpha" maskUnits="userSpaceOnUse" x="6" y="9" width="15" height="2">
<path fill-rule="evenodd" clip-rule="evenodd" d="M6.99609 9.25H20.537V10.75H6.99609V9.25Z" fill="white"/>
</mask>
<g mask="url(#mask0)">
<path fill-rule="evenodd" clip-rule="evenodd" d="M19.7871 10.75H7.74609C7.33209 10.75 6.99609 10.414 6.99609 10C6.99609 9.586 7.33209 9.25 7.74609 9.25H19.7871C20.2011 9.25 20.5371 9.586 20.5371 10C20.5371 10.414 20.2011 10.75 19.7871 10.75Z" fill="#429F97"/>
</g>
<mask id="mask1" mask-type="alpha" maskUnits="userSpaceOnUse" x="16" y="6" width="5" height="8">
<path fill-rule="evenodd" clip-rule="evenodd" d="M16.1094 6.33527H20.5367V13.666H16.1094V6.33527Z" fill="white"/>
</mask>
<g mask="url(#mask1)">
<path fill-rule="evenodd" clip-rule="evenodd" d="M16.8591 13.666C16.6671 13.666 16.4741 13.593 16.3281 13.445C16.0361 13.151 16.0371 12.677 16.3301 12.385L18.7241 10L16.3301 7.61602C16.0371 7.32402 16.0351 6.85002 16.3281 6.55602C16.6201 6.26202 17.0941 6.26202 17.3881 6.55402L20.3161 9.46902C20.4581 9.60902 20.5371 9.80102 20.5371 10C20.5371 10.199 20.4581 10.391 20.3161 10.531L17.3881 13.447C17.2421 13.593 17.0501 13.666 16.8591 13.666Z" fill="#91C4BF"/>
</g>
</svg>
