<svg width="16" height="20" viewBox="0 0 16 20" fill="none" xmlns="http://www.w3.org/2000/svg">
<mask id="mask0" mask-type="alpha" maskUnits="userSpaceOnUse" x="0" y="12" width="16" height="8">
<path fill-rule="evenodd" clip-rule="evenodd" d="M0 12.4961H15.8399V19.8701H0V12.4961Z" fill="white"/>
</mask>
<g mask="url(#mask0)">
<path fill-rule="evenodd" clip-rule="evenodd" d="M7.921 13.9961C3.66 13.9961 1.5 14.7281 1.5 16.1731C1.5 17.6311 3.66 18.3701 7.921 18.3701C12.181 18.3701 14.34 17.6381 14.34 16.1931C14.34 14.7351 12.181 13.9961 7.921 13.9961ZM7.921 19.8701C5.962 19.8701 0 19.8701 0 16.1731C0 12.8771 4.521 12.4961 7.921 12.4961C9.88 12.4961 15.84 12.4961 15.84 16.1931C15.84 19.4891 11.32 19.8701 7.921 19.8701Z" fill="#91C4BF"/>
</g>
<mask id="mask1" mask-type="alpha" maskUnits="userSpaceOnUse" x="2" y="0" width="12" height="11">
<path fill-rule="evenodd" clip-rule="evenodd" d="M2.60938 0H13.2294V10.6186H2.60938V0Z" fill="white"/>
</mask>
<g mask="url(#mask1)">
<path fill-rule="evenodd" clip-rule="evenodd" d="M7.92041 1.428C5.77941 1.428 4.03741 3.169 4.03741 5.31C4.03041 7.444 5.75941 9.184 7.89141 9.192L7.92041 9.906V9.192C10.0604 9.192 11.8014 7.45 11.8014 5.31C11.8014 3.169 10.0604 1.428 7.92041 1.428ZM7.92041 10.619H7.88841C4.96641 10.61 2.59941 8.227 2.60941 5.307C2.60941 2.382 4.99141 0 7.92041 0C10.8484 0 13.2294 2.382 13.2294 5.31C13.2294 8.238 10.8484 10.619 7.92041 10.619Z" fill="#91C4BF"/>
</g>
</svg>
