<svg width="18" height="20" viewBox="0 0 18 20" fill="none" xmlns="http://www.w3.org/2000/svg">
<path fill-rule="evenodd" clip-rule="evenodd" d="M4.57266 1.51172C2.91466 1.51172 1.53966 2.85372 1.50066 4.50872V15.3397C1.47166 16.9867 2.77866 18.3387 4.41366 18.3667L4.56066 18.3657H12.5727C14.2147 18.3477 15.5537 16.9907 15.5517 15.3407V6.34172L10.9177 1.51172H4.58466H4.57266ZM4.39966 19.8667C1.92666 19.8237 -0.0413401 17.7867 0.000659935 15.3267V4.49072C0.0576599 2.00972 2.10666 0.0117188 4.56966 0.0117188H4.58766H11.2367C11.4407 0.0117188 11.6357 0.0947188 11.7777 0.241719L16.8437 5.52072C16.9767 5.65972 17.0517 5.84672 17.0517 6.03972V15.3397C17.0557 17.8087 15.0497 19.8397 12.5807 19.8657L4.39966 19.8667Z" fill="#91C4BF"/>
<path fill-rule="evenodd" clip-rule="evenodd" d="M16.2976 6.984H13.5436C11.7126 6.979 10.2246 5.487 10.2246 3.659V0.75C10.2246 0.336 10.5606 0 10.9746 0C11.3886 0 11.7246 0.336 11.7246 0.75V3.659C11.7246 4.663 12.5416 5.481 13.5456 5.484H16.2976C16.7116 5.484 17.0476 5.82 17.0476 6.234C17.0476 6.648 16.7116 6.984 16.2976 6.984Z" fill="#91C4BF"/>
<path fill-rule="evenodd" clip-rule="evenodd" d="M10.7935 11.6641H5.89453C5.48053 11.6641 5.14453 11.3281 5.14453 10.9141C5.14453 10.5001 5.48053 10.1641 5.89453 10.1641H10.7935C11.2075 10.1641 11.5435 10.5001 11.5435 10.9141C11.5435 11.3281 11.2075 11.6641 10.7935 11.6641Z" fill="#91C4BF"/>
<path fill-rule="evenodd" clip-rule="evenodd" d="M8.34375 14.1148C7.92975 14.1148 7.59375 13.7788 7.59375 13.3648V8.46484C7.59375 8.05084 7.92975 7.71484 8.34375 7.71484C8.75775 7.71484 9.09375 8.05084 9.09375 8.46484V13.3648C9.09375 13.7788 8.75775 14.1148 8.34375 14.1148Z" fill="#91C4BF"/>
</svg>
