<svg width="18" height="20" viewBox="0 0 18 20" fill="none" xmlns="http://www.w3.org/2000/svg">
<path fill-rule="evenodd" clip-rule="evenodd" d="M4.57166 1.51172C2.91466 1.51172 1.53966 2.85372 1.50066 4.50872V15.3397C1.47166 16.9867 2.77866 18.3387 4.41266 18.3667L4.56066 18.3657H12.5727C14.2147 18.3477 15.5537 16.9907 15.5517 15.3407V6.34172L10.9167 1.51172H4.58466H4.57166ZM4.39866 19.8667C1.92566 19.8237 -0.0413397 17.7867 0.000660263 15.3267V4.49072C0.0576603 2.00972 2.10566 0.0117188 4.56866 0.0117188H4.58766H11.2357C11.4397 0.0117188 11.6347 0.0947188 11.7767 0.241719L16.8427 5.52072C16.9767 5.65972 17.0517 5.84672 17.0517 6.03972V15.3397C17.0557 17.8087 15.0497 19.8397 12.5807 19.8657L4.39866 19.8667Z" fill="#91C4BF"/>
<path fill-rule="evenodd" clip-rule="evenodd" d="M16.2957 6.984H13.5417C11.7107 6.979 10.2227 5.487 10.2227 3.659V0.75C10.2227 0.336 10.5587 0 10.9727 0C11.3867 0 11.7227 0.336 11.7227 0.75V3.659C11.7227 4.663 12.5397 5.481 13.5437 5.484H16.2957C16.7097 5.484 17.0457 5.82 17.0457 6.234C17.0457 6.648 16.7097 6.984 16.2957 6.984Z" fill="#91C4BF"/>
<path fill-rule="evenodd" clip-rule="evenodd" d="M10.7916 12.4961H5.89258C5.47858 12.4961 5.14258 12.1601 5.14258 11.7461C5.14258 11.3321 5.47858 10.9961 5.89258 10.9961H10.7916C11.2056 10.9961 11.5416 11.3321 11.5416 11.7461C11.5416 12.1601 11.2056 12.4961 10.7916 12.4961Z" fill="#91C4BF"/>
</svg>
