<svg width="21" height="24" viewBox="0 0 21 24" fill="none" xmlns="http://www.w3.org/2000/svg">
<path fill-rule="evenodd" clip-rule="evenodd" d="M15.7427 9.89989C15.2597 9.89989 14.8677 9.50789 14.8677 9.02489V6.52006C14.8677 4.07472 12.8786 2.08556 10.4332 2.08556H10.4146C9.23273 2.08556 8.12556 2.54056 7.28906 3.37006C6.44673 4.20306 5.98123 5.31489 5.97656 6.50022V9.02489C5.97656 9.50789 5.58456 9.89989 5.10156 9.89989C4.61856 9.89989 4.22656 9.50789 4.22656 9.02489V6.52006C4.23356 4.84006 4.8834 3.28956 6.0559 2.12756C7.22956 0.964391 8.7789 0.291224 10.4367 0.335557C13.8434 0.335557 16.6177 3.10989 16.6177 6.52006V9.02489C16.6177 9.50789 16.2257 9.89989 15.7427 9.89989Z" fill="#429F97"/>
<path fill-rule="evenodd" clip-rule="evenodd" d="M5.96502 9.81689C4.00735 9.81689 2.41602 11.4082 2.41602 13.3659V18.3697C2.41602 20.3274 4.00735 21.9187 5.96502 21.9187H14.8795C16.836 21.9187 18.4285 20.3274 18.4285 18.3697V13.3659C18.4285 11.4082 16.836 9.81689 14.8795 9.81689H5.96502ZM14.8795 23.6687H5.96502C3.04252 23.6687 0.666016 21.2922 0.666016 18.3697V13.3659C0.666016 10.4434 3.04252 8.06689 5.96502 8.06689H14.8795C17.802 8.06689 20.1785 10.4434 20.1785 13.3659V18.3697C20.1785 21.2922 17.802 23.6687 14.8795 23.6687Z" fill="#429F97"/>
<path fill-rule="evenodd" clip-rule="evenodd" d="M10.4219 18.0382C9.93887 18.0382 9.54688 17.6462 9.54688 17.1632V14.572C9.54688 14.089 9.93887 13.697 10.4219 13.697C10.9049 13.697 11.2969 14.089 11.2969 14.572V17.1632C11.2969 17.6462 10.9049 18.0382 10.4219 18.0382Z" fill="#429F97"/>
</svg>
