<svg width="30" height="30" viewBox="0 0 30 30" fill="none" xmlns="http://www.w3.org/2000/svg">
<path d="M25.6055 7.55859H24.7852V4.39453C24.7852 1.97139 22.8138 0 20.3906 0H9.60938C7.18623 0 5.21484 1.97139 5.21484 4.39453V7.55859H4.39453C1.97139 7.55859 0 9.52998 0 11.9531V18.9844C0 21.4075 1.97139 23.3789 4.39453 23.3789H5.21484V27.3633C5.21484 28.8172 6.39768 30 7.85156 30H22.1484C23.6023 30 24.7852 28.8172 24.7852 27.3633V23.3789H25.6055C28.0286 23.3789 30 21.4075 30 18.9844V11.9531C30 9.52998 28.0286 7.55859 25.6055 7.55859ZM6.97266 4.39453C6.97266 2.94064 8.15549 1.75781 9.60938 1.75781H20.3906C21.8445 1.75781 23.0273 2.94064 23.0273 4.39453V7.55859H6.97266V4.39453ZM23.0273 27.3633C23.0273 27.8479 22.6331 28.2422 22.1484 28.2422H7.85156C7.36693 28.2422 6.97266 27.8479 6.97266 27.3633V18.6914H23.0273V27.3633ZM28.2422 18.9844C28.2422 20.4383 27.0594 21.6211 25.6055 21.6211H24.7852V18.6914H25.3125C25.7979 18.6914 26.1914 18.2979 26.1914 17.8125C26.1914 17.3271 25.7979 16.9336 25.3125 16.9336H4.6875C4.20211 16.9336 3.80859 17.3271 3.80859 17.8125C3.80859 18.2979 4.20211 18.6914 4.6875 18.6914H5.21484V21.6211H4.39453C2.94064 21.6211 1.75781 20.4383 1.75781 18.9844V11.9531C1.75781 10.4992 2.94064 9.31641 4.39453 9.31641H25.6055C27.0594 9.31641 28.2422 10.4992 28.2422 11.9531V18.9844Z" fill="white"/>
<path d="M17.3438 20.6836H12.6562C12.1709 20.6836 11.7773 21.0771 11.7773 21.5625C11.7773 22.0479 12.1709 22.4414 12.6562 22.4414H17.3438C17.8291 22.4414 18.2227 22.0479 18.2227 21.5625C18.2227 21.0771 17.8291 20.6836 17.3438 20.6836Z" fill="white"/>
<path d="M17.3438 24.4336H12.6562C12.1709 24.4336 11.7773 24.8271 11.7773 25.3125C11.7773 25.7979 12.1709 26.1914 12.6562 26.1914H17.3438C17.8291 26.1914 18.2227 25.7979 18.2227 25.3125C18.2227 24.8271 17.8291 24.4336 17.3438 24.4336Z" fill="white"/>
<path d="M7.5 11.3086H4.6875C4.20211 11.3086 3.80859 11.7021 3.80859 12.1875C3.80859 12.6729 4.20211 13.0664 4.6875 13.0664H7.5C7.98539 13.0664 8.37891 12.6729 8.37891 12.1875C8.37891 11.7021 7.98539 11.3086 7.5 11.3086Z" fill="white"/>
</svg>
