<svg width="143" height="154" viewBox="0 0 143 154" fill="none" xmlns="http://www.w3.org/2000/svg">
<path fill-rule="evenodd" clip-rule="evenodd" d="M71.391 153.667C61.0027 153.667 50.875 153.552 40.8547 153.345C28.036 153.092 19.1657 144.781 17.7167 131.656C15.3017 109.882 11.1693 58.5617 11.131 58.048C10.8703 54.8817 13.2317 52.1063 16.398 51.8533C19.5183 51.769 22.3397 53.9617 22.5927 57.1203C22.631 57.6417 26.7557 108.786 29.1477 130.391C29.968 137.85 33.993 141.699 41.0923 141.845C60.259 142.251 79.8167 142.274 100.9 141.891C108.444 141.745 112.523 137.973 113.366 130.337C115.743 108.916 119.883 57.6417 119.929 57.1203C120.182 53.9617 122.98 51.7537 126.116 51.8533C129.282 52.114 131.643 54.8817 131.39 58.048C131.344 58.5693 127.189 110.02 124.797 131.602C123.31 144.996 114.462 153.145 101.107 153.391C90.8873 153.567 81.028 153.667 71.391 153.667Z" fill="#429F97"/>
<path fill-rule="evenodd" clip-rule="evenodd" d="M136.261 38.5845H6.25C3.076 38.5845 0.5 36.0085 0.5 32.8345C0.5 29.6605 3.076 27.0845 6.25 27.0845H136.261C139.435 27.0845 142.011 29.6605 142.011 32.8345C142.011 36.0085 139.435 38.5845 136.261 38.5845Z" fill="#429F97"/>
<path fill-rule="evenodd" clip-rule="evenodd" d="M111.21 38.5847C102.486 38.5847 94.9111 32.367 93.1938 23.811L91.3308 14.4884C90.9398 13.07 89.3221 11.8357 87.4821 11.8357H55.0291C53.1891 11.8357 51.5714 13.07 51.1038 14.841L49.3174 23.811C47.6078 32.367 40.0254 38.5847 31.3008 38.5847C28.1268 38.5847 25.5508 36.0087 25.5508 32.8347C25.5508 29.6607 28.1268 27.0847 31.3008 27.0847C34.5668 27.0847 37.4034 24.754 38.0474 21.5494L39.9104 12.2267C41.8041 5.08136 47.9911 0.335693 55.0291 0.335693H87.4821C94.5201 0.335693 100.707 5.08136 102.524 11.8817L104.471 21.5494C105.108 24.754 107.944 27.0847 111.21 27.0847C114.384 27.0847 116.96 29.6607 116.96 32.8347C116.96 36.0087 114.384 38.5847 111.21 38.5847Z" fill="#429F97"/>
</svg>
