<svg width="150" height="150" viewBox="0 0 150 150" fill="none" xmlns="http://www.w3.org/2000/svg">
<g clip-path="url(#clip0)">
<path d="M16.9684 122.747C15.4382 122.747 13.9079 122.529 12.2684 121.982C12.1591 121.982 12.0498 121.982 11.9405 121.873C10.1916 120.998 8.55204 119.796 7.13109 118.375C3.08686 114.549 1.338 109.849 0.572874 106.679V106.57C-0.301555 101.214 1.99382 96.1863 6.25667 94.4375C8.33344 93.6723 10.3009 93.891 11.8312 94.3282C11.9405 94.0003 12.0498 93.7817 12.3777 93.4537L48.2293 59.8975C48.9944 59.2417 50.1967 59.2417 50.9619 60.0068C51.6177 60.7719 51.6177 61.9743 50.8526 62.7394L15.5475 95.5305C15.7661 97.7166 16.5312 101.105 19.0452 104.166C21.2313 106.898 23.9639 108.319 25.9313 109.084C41.8897 101.761 56.4271 94.984 72.3854 87.5513C73.3691 87.1141 74.4622 87.5513 74.8994 88.4258C75.3366 89.4095 74.8994 90.5025 74.0249 90.9398C57.848 98.4817 43.092 105.259 26.9151 112.8C26.9151 112.8 26.8058 112.8 26.6965 112.8C26.9151 115.096 26.4778 116.735 26.0406 117.61C24.5104 120.889 21.0127 122.747 16.9684 122.747ZM13.6893 118.375C17.9522 119.687 21.5592 118.266 22.6522 116.189C22.8708 115.752 23.0894 114.877 22.9801 113.675C14.0172 109.631 11.6125 101.214 11.066 98.1538C10.1916 97.8259 8.87995 97.6073 7.67761 98.0445C5.27293 99.0282 3.85198 102.417 4.3985 105.805C5.05432 108.538 6.58458 112.363 9.86369 115.642C10.9567 116.626 12.2684 117.61 13.6893 118.375ZM91.4042 83.3978C90.7484 83.3978 89.9833 82.9606 89.6554 82.3048C89.2181 81.321 89.6554 80.228 90.5298 79.7908C100.476 75.2 108.893 71.1558 116.981 67.2209C122.993 64.379 129.223 61.3185 136.109 58.1487C129.442 55.4161 121.791 47.9834 115.56 37.5996C109.549 27.5436 106.379 17.7063 106.816 10.6016L70.09 44.8136C69.3249 45.4694 68.1226 45.4694 67.3574 44.7043C66.7016 43.9392 66.7016 42.7368 67.4667 41.9717L109.439 2.9503C109.549 2.841 109.767 2.7317 109.986 2.62239C110.314 2.29448 110.751 1.96657 111.188 1.74796C118.512 -2.62418 131.3 6.12011 141.137 22.2971C150.865 38.3647 152.724 53.8858 145.51 58.3673C144.854 58.6952 144.198 59.0231 143.433 59.2417C134.251 63.5045 126.381 67.3302 118.73 70.9372C110.532 74.8721 102.116 78.9164 92.1693 83.5071C91.9507 83.3978 91.6228 83.3978 91.4042 83.3978ZM112.281 5.7922C109.111 9.72713 110.751 21.9691 118.949 35.6321C127.256 49.2951 137.312 56.3998 142.34 55.3068H142.449C142.886 55.1975 143.214 55.0882 143.542 54.8695C148.024 52.137 146.821 38.9112 137.858 24.1552C128.895 9.39922 117.746 2.18518 113.265 4.91777C112.937 5.13638 112.609 5.35498 112.281 5.7922Z" fill="white"/>
<path d="M149.008 118.703L85.6121 74.6536L104.85 67.3302C106.38 66.7837 106.598 64.5976 105.068 63.7232L57.6304 36.3973L79.7097 27.9809C81.24 27.4344 81.3493 25.3576 79.9283 24.4832L36.3162 0.764273C34.5673 -0.21946 32.4905 -0.21946 30.7417 0.654969L1.22967 15.7389C-0.409889 16.504 -0.409889 18.9087 1.22967 19.6738L26.5881 31.26L9.20883 37.8182C7.56928 38.3647 7.45998 40.7694 8.99023 41.5345L62.3304 68.5326L47.6837 73.1233C45.7163 73.7791 45.607 76.5117 47.4651 77.3862L146.713 122.638C149.227 123.95 151.304 120.233 149.008 118.703ZM53.4768 75.6373L67.7956 70.8279C69.4352 70.2814 69.6538 67.986 68.0142 67.1116L14.7833 39.895L32.9277 32.8996C34.2394 32.353 34.3487 30.4949 33.037 29.8391L6.36694 17.597L33.2556 3.93408L73.8073 25.5762L52.3838 33.9926C50.6349 34.6484 50.5256 37.0531 52.1652 38.0368L99.603 65.1441L81.6772 71.7024C79.4911 72.4675 79.1632 75.4187 81.0213 76.8396L129.661 110.396L53.4768 75.6373Z" fill="white"/>
<path d="M0 130.51H11.1224C14.898 130.51 17.1429 132.551 17.1429 135.918C17.1429 138.673 15.4082 140.918 12.551 141.429L17.449 149.898H14.7959L9.89796 141.429H2.44898V149.898H0V130.51ZM10.9184 139.184C13.3673 139.184 14.5918 138.061 14.5918 136.02C14.5918 133.98 13.3673 132.755 11.0204 132.755H2.44898V139.184H10.9184Z" fill="white"/>
<path d="M20 140.204C20 134.286 24.2857 130 30 130C35.8163 130 40.102 134.286 40.102 140.204C40.102 146.122 35.8163 150.306 30 150.306C24.2857 150.408 20 146.122 20 140.204ZM37.551 140.204C37.551 135.612 34.3878 132.347 30 132.347C25.7143 132.347 22.449 135.612 22.449 140.204C22.449 144.796 25.7143 148.061 30 148.061C34.3878 148.163 37.551 144.796 37.551 140.204Z" fill="white"/>
<path d="M44.1841 130.51H55.3065C59.082 130.51 61.3269 132.551 61.3269 135.918C61.3269 138.673 59.5922 140.918 56.7351 141.429L61.633 149.898H58.98L54.082 141.429H46.531V149.898H44.082V130.51H44.1841ZM55.2045 139.184C57.6535 139.184 58.8779 138.061 58.8779 136.02C58.8779 133.98 57.6535 132.755 55.3065 132.755H46.6331V139.184H55.2045Z" fill="white"/>
<path d="M65.307 144.898C68.0621 147.041 71.1233 148.163 73.9805 148.163C77.6539 148.163 80.0009 146.429 80.0009 144.082C80.0009 142.347 78.4703 140.918 75.5111 140.612C72.2458 140.408 69.5927 140.306 67.5519 139.388C65.7152 138.571 64.7968 137.143 64.7968 135.408C64.7968 132.449 67.756 130.102 72.3478 130.102C75.6131 130.102 78.7764 131.224 81.6335 133.265L80.205 135.306C77.756 133.367 75.1029 132.347 72.3478 132.347C69.2866 132.347 67.3478 133.673 67.3478 135.306C67.3478 136.02 67.6539 136.531 68.2662 137.041C69.8988 138.265 72.6539 138.061 76.2254 138.367C80.307 138.878 82.6539 141.122 82.6539 144.082C82.6539 147.449 79.5927 150.306 74.0825 150.306C70.307 150.306 67.0417 149.184 63.9805 146.939L65.307 144.898Z" fill="white"/>
<path d="M87.2441 130.51H89.6931V138.163H101.122V130.51H103.571V149.898H101.122V140.408H89.6931V149.898H87.2441V130.51Z" fill="white"/>
<path d="M107.756 140.204C107.756 134.286 112.042 130 117.756 130C123.572 130 127.858 134.286 127.858 140.204C127.858 146.122 123.572 150.306 117.756 150.306C112.042 150.408 107.756 146.122 107.756 140.204ZM125.409 140.204C125.409 135.612 122.246 132.347 117.858 132.347C113.572 132.347 110.307 135.612 110.307 140.204C110.307 144.796 113.572 148.061 117.858 148.061C122.144 148.163 125.409 144.796 125.409 140.204Z" fill="white"/>
<path d="M132.143 130.51H134.592V140.204L145.715 130.51H148.878L141.021 137.449L150 149.898H147.041L139.184 139.082L134.49 143.061V150H132.041V130.51H132.143Z" fill="white"/>
</g>
<defs>
<clipPath id="clip0">
<rect width="150" height="150" fill="white"/>
</clipPath>
</defs>
</svg>
