<svg width="30" height="30" viewBox="0 0 30 30" fill="none" xmlns="http://www.w3.org/2000/svg">
<path d="M21.75 2.25C22.35 2.25 22.95 2.55 23.4 2.85L27.15 6.6C27.6 7.05 27.75 7.65 27.75 8.25V21.6C27.75 24.9 25.05 27.6 21.75 27.6H8.25C4.95 27.6 2.25 24.9 2.25 21.6V8.1C2.25 4.8 4.95 2.1 8.25 2.1H21.75V2.25ZM21.75 0H8.25C3.75 0 0 3.75 0 8.25V21.75C0 26.25 3.75 30 8.25 30H21.75C26.4 30 30 26.25 30 21.75V8.25C30 7.05 29.55 5.85 28.65 5.1L24.9 1.35C24 0.45 22.95 0 21.75 0Z" fill="white"/>
<path d="M19.9508 2.39999V6.14999C19.9508 6.59999 19.6508 6.89999 19.5008 6.89999H10.5008C10.3508 6.89999 10.0508 6.59999 10.0508 6.14999V2.39999H19.9508ZM22.2008 0.149994H7.80078V6.14999C7.80078 7.79999 9.00078 9.14999 10.5008 9.14999H19.5008C21.0008 9.14999 22.2008 7.79999 22.2008 6.14999V0.149994Z" fill="white"/>
<path d="M14.9996 17.25C16.3496 17.25 17.3996 18.3 17.3996 19.65C17.3996 21 16.3496 22.05 14.9996 22.05C13.6496 22.05 12.5996 21 12.5996 19.65C12.5996 18.3 13.6496 17.25 14.9996 17.25ZM14.9996 15C12.4496 15 10.3496 17.1 10.3496 19.65C10.3496 22.2 12.4496 24.3 14.9996 24.3C17.5496 24.3 19.6496 22.2 19.6496 19.65C19.6496 17.1 17.5496 15 14.9996 15Z" fill="white"/>
</svg>
