<svg width="18" height="105" viewBox="0 0 18 105" fill="none" xmlns="http://www.w3.org/2000/svg">
<path d="M0 99.4732V5.88321C0 3.9732 2.42154 3.15 3.58563 4.66428L17.2215 22.4021C17.4902 22.7517 17.6358 23.1802 17.6358 23.6211V83.0998C17.6358 83.5674 17.472 84.0203 17.1727 84.3797L3.53684 100.753C2.33957 102.191 0 101.344 0 99.4732Z" fill="#429F97"/>
<path d="M11.9445 46.1808C12.1635 46.3999 12.1834 46.7429 12.0042 46.9845L11.9445 47.0538L7.00091 52L11.9445 56.9462C12.1635 57.1654 12.1834 57.5083 12.0042 57.75L11.9445 57.8192C11.7254 58.0384 11.3827 58.0583 11.1412 57.879L11.072 57.8192L5.69241 52.4365C5.47339 52.2173 5.45348 51.8744 5.63268 51.6327L5.69241 51.5635L11.072 46.1808C11.3129 45.9397 11.7035 45.9397 11.9445 46.1808Z" fill="white"/>
</svg>
