<svg width="18" height="105" viewBox="0 0 18 105" fill="none" xmlns="http://www.w3.org/2000/svg">
<path d="M0 99.559V5.789C0 3.88896 2.40061 3.0596 3.57348 4.55443L17.5735 22.3976C17.8498 22.7498 18 23.1845 18 23.6321V83.0884C18 83.563 17.8312 84.0221 17.5239 84.3837L3.52388 100.854C2.31867 102.272 0 101.42 0 99.559Z" fill="#429F97"/>
<path d="M5.80942 57.8192C5.58588 57.6001 5.56556 57.2571 5.74846 57.0155L5.80942 56.9462L10.8551 52L5.80942 47.0538C5.58588 46.8346 5.56556 46.4917 5.74846 46.25L5.80942 46.1808C6.03297 45.9616 6.38278 45.9417 6.62928 46.121L6.6999 46.1808L12.1906 51.5635C12.4141 51.7827 12.4344 52.1256 12.2515 52.3673L12.1906 52.4365L6.6999 57.8192C6.454 58.0603 6.05532 58.0603 5.80942 57.8192Z" fill="white"/>
</svg>
