<svg width="155" height="154" viewBox="0 0 155 154" fill="none" xmlns="http://www.w3.org/2000/svg">
<path fill-rule="evenodd" clip-rule="evenodd" d="M44.2657 11.8335C24.869 11.8335 12.334 25.1198 12.334 45.6895V108.311C12.334 128.881 24.869 142.167 44.2657 142.167H110.72C130.125 142.167 142.667 128.881 142.667 108.311V45.6895C142.667 25.1198 130.125 11.8335 110.728 11.8335H44.2657ZM110.72 153.667H44.2657C18.2833 153.667 0.833984 135.436 0.833984 108.311V45.6895C0.833984 18.5648 18.2833 0.333496 44.2657 0.333496H110.728C136.71 0.333496 154.167 18.5648 154.167 45.6895V108.311C154.167 135.436 136.71 153.667 110.72 153.667Z" fill="#38B593"/>
<path fill-rule="evenodd" clip-rule="evenodd" d="M68.4038 100.943C66.9395 100.943 65.4598 100.383 64.3405 99.2565L46.1398 81.0635C43.8935 78.8172 43.8935 75.1832 46.1398 72.9368C48.3862 70.6905 52.0202 70.6905 54.2665 72.9368L68.4038 87.0588L100.726 54.7438C102.973 52.4975 106.607 52.4975 108.853 54.7438C111.1 56.9902 111.1 60.6242 108.853 62.8705L72.4672 99.2565C71.3478 100.383 69.8758 100.943 68.4038 100.943Z" fill="#38B593"/>
</svg>
