<svg width="24" height="24" viewBox="0 0 24 24" fill="none" xmlns="http://www.w3.org/2000/svg">
<path fill-rule="evenodd" clip-rule="evenodd" d="M11.75 16.1543C11.336 16.1543 11 15.8183 11 15.4043V8.0773C11 7.6633 11.336 7.3273 11.75 7.3273C12.164 7.3273 12.5 7.6633 12.5 8.0773V15.4043C12.5 15.8183 12.164 16.1543 11.75 16.1543Z" fill="#429F97"/>
<path fill-rule="evenodd" clip-rule="evenodd" d="M15.417 12.4902H8.08398C7.66898 12.4902 7.33398 12.1542 7.33398 11.7402C7.33398 11.3262 7.66898 10.9902 8.08398 10.9902H15.417C15.831 10.9902 16.167 11.3262 16.167 11.7402C16.167 12.1542 15.831 12.4902 15.417 12.4902Z" fill="#429F97"/>
<mask id="mask0" mask-type="alpha" maskUnits="userSpaceOnUse" x="2" y="2" width="20" height="20">
<path fill-rule="evenodd" clip-rule="evenodd" d="M2 2H21.4768V21.477H2V2Z" fill="white"/>
</mask>
<g mask="url(#mask0)">
<path fill-rule="evenodd" clip-rule="evenodd" d="M11.739 3.5C7.196 3.5 3.5 7.195 3.5 11.738C3.5 16.281 7.196 19.977 11.739 19.977C16.281 19.977 19.977 16.281 19.977 11.738C19.977 7.195 16.281 3.5 11.739 3.5ZM11.739 21.477C6.369 21.477 2 17.108 2 11.738C2 6.368 6.369 2 11.739 2C17.109 2 21.477 6.368 21.477 11.738C21.477 17.108 17.109 21.477 11.739 21.477Z" fill="#429F97"/>
</g>
<mask id="mask1" mask-type="alpha" maskUnits="userSpaceOnUse" x="17" y="17" width="6" height="6">
<path fill-rule="evenodd" clip-rule="evenodd" d="M17.2402 17.7069H22.2643V22.7217H17.2402V17.7069Z" fill="white"/>
</mask>
<g mask="url(#mask1)">
<path fill-rule="evenodd" clip-rule="evenodd" d="M21.5145 22.7217C21.3235 22.7217 21.1315 22.6487 20.9845 22.5027L17.4605 18.9887C17.1675 18.6957 17.1665 18.2207 17.4595 17.9277C17.7515 17.6327 18.2265 17.6347 18.5205 17.9257L22.0445 21.4407C22.3375 21.7337 22.3385 22.2077 22.0455 22.5007C21.8995 22.6487 21.7065 22.7217 21.5145 22.7217Z" fill="#429F97"/>
</g>
</svg>
